<svg width="56" height="56" viewBox="0 0 56 56" fill="none" xmlns="http://www.w3.org/2000/svg">
<rect x="4" y="4" width="48" height="48" rx="24" fill="#FEF0C7"/>
<rect x="4" y="4" width="48" height="48" rx="24" stroke="#FFFAEB" stroke-width="8"/>
<path d="M27.9988 23.9992V27.9992M27.9988 31.9992H28.0088M26.2888 18.8592L17.8188 32.9992C17.6442 33.3017 17.5518 33.6445 17.5508 33.9937C17.5498 34.343 17.6403 34.6864 17.8132 34.9898C17.9862 35.2931 18.2355 35.546 18.5365 35.7231C18.8375 35.9002 19.1796 35.9954 19.5288 35.9992H36.4688C36.818 35.9954 37.1601 35.9002 37.4611 35.7231C37.7621 35.546 38.0114 35.2931 38.1844 34.9898C38.3573 34.6864 38.4478 34.343 38.4468 33.9937C38.4458 33.6445 38.3534 33.3017 38.1788 32.9992L29.7088 18.8592C29.5305 18.5653 29.2795 18.3223 28.98 18.1537C28.6805 17.9851 28.3425 17.8965 27.9988 17.8965C27.6551 17.8965 27.3171 17.9851 27.0176 18.1537C26.7181 18.3223 26.4671 18.5653 26.2888 18.8592Z" stroke="#DC6803" stroke-width="2" stroke-linecap="round" stroke-linejoin="round"/>
</svg>
