<svg width="20" height="20" viewBox="0 0 20 20" fill="none" xmlns="http://www.w3.org/2000/svg">
<path d="M7.70801 7.54102C9.19134 8.08268 10.808 8.08268 12.2913 7.54102" stroke="#5E5959" stroke-width="1.5" stroke-linecap="round" stroke-linejoin="round"/>
<path d="M14.0166 1.66602H5.98327C4.20827 1.66602 2.7666 3.11602 2.7666 4.88268V16.6244C2.7666 18.1244 3.8416 18.7577 5.15827 18.0327L9.22493 15.7743C9.65827 15.5327 10.3583 15.5327 10.7833 15.7743L14.8499 18.0327C16.1666 18.766 17.2416 18.1327 17.2416 16.6244V4.88268C17.2333 3.11602 15.7916 1.66602 14.0166 1.66602Z" stroke="#5E5959" stroke-width="1.5" stroke-linecap="round" stroke-linejoin="round"/>
<path d="M14.0166 1.66602H5.98327C4.20827 1.66602 2.7666 3.11602 2.7666 4.88268V16.6244C2.7666 18.1244 3.8416 18.7577 5.15827 18.0327L9.22493 15.7743C9.65827 15.5327 10.3583 15.5327 10.7833 15.7743L14.8499 18.0327C16.1666 18.766 17.2416 18.1327 17.2416 16.6244V4.88268C17.2333 3.11602 15.7916 1.66602 14.0166 1.66602Z" stroke="#5E5959" stroke-width="1.5" stroke-linecap="round" stroke-linejoin="round"/>
</svg>
