<svg width="24" height="25" viewBox="0 0 24 25" fill="none" xmlns="http://www.w3.org/2000/svg">
<path d="M4.25977 11.0429V16.0129C4.25977 17.8329 4.25977 17.8329 5.97977 18.9929L10.7098 21.7229C11.4198 22.1329 12.5798 22.1329 13.2898 21.7229L18.0198 18.9929C19.7398 17.8329 19.7398 17.8329 19.7398 16.0129V11.0429C19.7398 9.22289 19.7398 9.22289 18.0198 8.06289L13.2898 5.33289C12.5798 4.92289 11.4198 4.92289 10.7098 5.33289L5.97977 8.06289C4.25977 9.22289 4.25977 9.22289 4.25977 11.0429Z" stroke="#667085" stroke-width="1.5" stroke-linecap="round" stroke-linejoin="round"/>
<path d="M17.5 7.65344V5.02344C17.5 3.02344 16.5 2.02344 14.5 2.02344H9.5C7.5 2.02344 6.5 3.02344 6.5 5.02344V7.58344" stroke="#667085" stroke-width="1.5" stroke-linecap="round" stroke-linejoin="round"/>
<path d="M12.6298 11.0144L13.1998 11.9044C13.2898 12.0444 13.4898 12.1844 13.6398 12.2244L14.6598 12.4844C15.2898 12.6444 15.4598 13.1844 15.0498 13.6844L14.3798 14.4944C14.2798 14.6244 14.1998 14.8544 14.2098 15.0144L14.2698 16.0644C14.3098 16.7144 13.8498 17.0444 13.2498 16.8044L12.2698 16.4144C12.1198 16.3544 11.8698 16.3544 11.7198 16.4144L10.7398 16.8044C10.1398 17.0444 9.67978 16.7044 9.71978 16.0644L9.77978 15.0144C9.78978 14.8544 9.70978 14.6144 9.60978 14.4944L8.93978 13.6844C8.52978 13.1844 8.69978 12.6444 9.32978 12.4844L10.3498 12.2244C10.5098 12.1844 10.7098 12.0344 10.7898 11.9044L11.3598 11.0144C11.7198 10.4744 12.2798 10.4744 12.6298 11.0144Z" stroke="#667085" stroke-width="1.5" stroke-linecap="round" stroke-linejoin="round"/>
</svg>
