<svg width="24" height="22" viewBox="0 0 24 22" fill="none" xmlns="http://www.w3.org/2000/svg">
<path d="M20.9863 9.87305C20.9863 14.8436 16.9569 18.873 11.9863 18.873C7.01577 18.873 2.98633 14.8436 2.98633 9.87305C2.98633 4.90248 7.01577 0.873047 11.9863 0.873047C16.9569 0.873047 20.9863 4.90248 20.9863 9.87305Z" fill="#FFBB0D"/>
<path fill-rule="evenodd" clip-rule="evenodd" d="M21.6536 9.8737C21.6536 15.2124 17.3257 19.5404 11.987 19.5404C6.64823 19.5404 2.32031 15.2124 2.32031 9.8737C2.32031 4.53494 6.64823 0.207031 11.987 0.207031C17.3257 0.207031 21.6536 4.53494 21.6536 9.8737ZM11.987 18.8737C16.9575 18.8737 20.987 14.8443 20.987 9.8737C20.987 4.90314 16.9575 0.873698 11.987 0.873698C7.01642 0.873698 2.98698 4.90314 2.98698 9.8737C2.98698 14.8443 7.01642 18.8737 11.987 18.8737Z" fill="#E89B05"/>
<path fill-rule="evenodd" clip-rule="evenodd" d="M3.65365 10.207C3.46955 10.207 3.32031 10.0578 3.32031 9.8737C3.32031 5.08723 7.20051 1.20703 11.987 1.20703C12.1711 1.20703 12.3203 1.35627 12.3203 1.54036C12.3203 1.72446 12.1711 1.8737 11.987 1.8737C7.5687 1.8737 3.98698 5.45542 3.98698 9.8737C3.98698 10.0578 3.83774 10.207 3.65365 10.207Z" fill="#E8AA0A"/>
<path fill-rule="evenodd" clip-rule="evenodd" d="M20.321 9.54102C20.5051 9.54102 20.6543 9.69025 20.6543 9.87435C20.6543 14.6608 16.7741 18.541 11.9876 18.541C11.8035 18.541 11.6543 18.3918 11.6543 18.2077C11.6543 18.0236 11.8035 17.8743 11.9876 17.8743C16.4059 17.8743 19.9876 14.2926 19.9876 9.87435C19.9876 9.69025 20.1369 9.54102 20.321 9.54102Z" fill="#E8AA0A"/>
<path d="M18.6536 9.8737C18.6536 13.5556 15.6689 16.5404 11.987 16.5404C8.30508 16.5404 5.32031 13.5556 5.32031 9.8737C5.32031 6.1918 8.30508 3.20703 11.987 3.20703C15.6689 3.20703 18.6536 6.1918 18.6536 9.8737Z" fill="#FFDD28"/>
<path fill-rule="evenodd" clip-rule="evenodd" d="M19.321 9.87435C19.321 13.9244 16.0377 17.2077 11.9876 17.2077C7.93754 17.2077 4.6543 13.9244 4.6543 9.87435C4.6543 5.82426 7.93754 2.54102 11.9876 2.54102C16.0377 2.54102 19.321 5.82426 19.321 9.87435ZM11.9876 16.541C15.6695 16.541 18.6543 13.5562 18.6543 9.87435C18.6543 6.19245 15.6695 3.20768 11.9876 3.20768C8.30573 3.20768 5.32096 6.19245 5.32096 9.87435C5.32096 13.5562 8.30573 16.541 11.9876 16.541Z" fill="#E89B05"/>
<path fill-rule="evenodd" clip-rule="evenodd" d="M11.987 15.5404C15.1166 15.5404 17.6536 13.0033 17.6536 9.8737C17.6536 9.6896 17.8029 9.54036 17.987 9.54036C18.1711 9.54036 18.3203 9.6896 18.3203 9.8737C18.3203 13.3715 15.4848 16.207 11.987 16.207C11.8029 16.207 11.6536 16.0578 11.6536 15.8737C11.6536 15.6896 11.8029 15.5404 11.987 15.5404Z" fill="#ECC704"/>
<path fill-rule="evenodd" clip-rule="evenodd" d="M11.9876 4.20768C8.85802 4.20768 6.32096 6.74474 6.32096 9.87435C6.32096 10.0584 6.17173 10.2077 5.98763 10.2077C5.80354 10.2077 5.6543 10.0584 5.6543 9.87435C5.6543 6.37655 8.48983 3.54102 11.9876 3.54102C12.1717 3.54102 12.321 3.69025 12.321 3.87435C12.321 4.05844 12.1717 4.20768 11.9876 4.20768Z" fill="#FFEF9C"/>
<path d="M1.80002 18.7492L0.941428 17.032C0.847926 16.845 0.983908 16.625 1.19298 16.625L4.95666 16.625C5.11199 16.625 5.23791 16.7509 5.23791 16.9062L5.23791 20.8437C5.23791 20.9991 5.11199 21.125 4.95666 21.125L1.19298 21.125C0.983908 21.125 0.847926 20.905 0.941428 20.718L1.80002 19.0008C1.83961 18.9216 1.83961 18.8284 1.80002 18.7492Z" fill="#C52229"/>
<path d="M22.1758 18.7492L23.0344 17.032C23.1279 16.845 22.9919 16.625 22.7828 16.625L19.0192 16.625C18.8638 16.625 18.7379 16.7509 18.7379 16.9062L18.7379 20.8437C18.7379 20.9991 18.8638 21.125 19.0192 21.125L22.7828 21.125C22.9919 21.125 23.1279 20.905 23.0344 20.718L22.1758 19.0008C22.1362 18.9216 22.1362 18.8284 22.1758 18.7492Z" fill="#C52229"/>
<path fill-rule="evenodd" clip-rule="evenodd" d="M1.23525 18.875L0.43954 17.2836C0.159037 16.7226 0.566979 16.0625 1.19421 16.0625L4.95789 16.0625C5.42388 16.0625 5.80164 16.4403 5.80164 16.9062L5.80164 20.8437C5.80164 21.3097 5.42388 21.6875 4.95789 21.6875L1.19421 21.6875C0.566979 21.6875 0.159036 21.0274 0.43954 20.4664L1.23525 18.875ZM1.29797 19.0005C1.29803 19.0006 1.29808 19.0007 1.29814 19.0008L1.5497 18.875L1.29813 19.0008L1.29797 19.0005ZM22.743 18.875L23.5387 17.2836C23.8192 16.7226 23.4113 16.0625 22.7841 16.0625L19.0204 16.0625C18.5544 16.0625 18.1766 16.4403 18.1766 16.9062L18.1766 20.8437C18.1766 21.3097 18.5544 21.6875 19.0204 21.6875L22.7841 21.6875C23.4113 21.6875 23.8192 21.0274 23.5387 20.4664L22.743 18.875ZM23.0356 17.032L22.177 18.7492C22.1374 18.8284 22.1374 18.9216 22.177 19.0008L23.0356 20.718C23.1291 20.905 22.9931 21.125 22.7841 21.125L19.0204 21.125C18.8651 21.125 18.7391 20.9991 18.7391 20.8437L18.7391 16.9062C18.7391 16.7509 18.8651 16.625 19.0204 16.625L22.7841 16.625C22.9931 16.625 23.1291 16.845 23.0356 17.032ZM0.942656 17.032L1.80125 18.7492C1.84084 18.8284 1.84084 18.9216 1.80125 19.0008L0.942656 20.718C0.849154 20.905 0.985135 21.125 1.19421 21.125L4.95789 21.125C5.11322 21.125 5.23914 20.9991 5.23914 20.8437L5.23914 16.9062C5.23914 16.7509 5.11322 16.625 4.95789 16.625L1.19421 16.625C0.985136 16.625 0.849154 16.845 0.942656 17.032Z" fill="#9B0F15"/>
<path fill-rule="evenodd" clip-rule="evenodd" d="M1.34409 16.8793C1.3956 16.7976 1.48543 16.748 1.58203 16.748H2.77734C2.93267 16.748 3.05859 16.874 3.05859 17.0293C3.05859 17.1846 2.93267 17.3105 2.77734 17.3105H2.0283L2.60919 18.5251C2.67621 18.6653 2.61694 18.8332 2.47682 18.9002C2.33669 18.9672 2.16876 18.908 2.10174 18.7678L1.32831 17.1506C1.28663 17.0635 1.29259 16.9611 1.34409 16.8793Z" fill="#DF3840"/>
<path d="M19.8633 19.7188L19.8633 15.7813C19.8633 15.6259 19.7374 15.5 19.582 15.5L4.39453 15.5C4.2392 15.5 4.11328 15.6259 4.11328 15.7812L4.11328 19.7187C4.11328 19.8741 4.2392 20 4.39453 20L19.582 20C19.7374 20 19.8633 19.8741 19.8633 19.7188Z" fill="#F1333B"/>
<path fill-rule="evenodd" clip-rule="evenodd" d="M20.4258 15.7812L20.4258 19.7188C20.4258 20.1847 20.048 20.5625 19.582 20.5625L4.39453 20.5625C3.92854 20.5625 3.55078 20.1847 3.55078 19.7187L3.55078 15.7812C3.55078 15.3153 3.92854 14.9375 4.39453 14.9375L19.582 14.9375C20.048 14.9375 20.4258 15.3153 20.4258 15.7812ZM19.8633 15.7812L19.8633 19.7187C19.8633 19.8741 19.7374 20 19.582 20L4.39453 20C4.2392 20 4.11328 19.8741 4.11328 19.7187L4.11328 15.7812C4.11328 15.6259 4.2392 15.5 4.39453 15.5L19.582 15.5C19.7374 15.5 19.8633 15.6259 19.8633 15.7812Z" fill="#9B0F15"/>
<path d="M19.0847 17.8576C18.9254 17.8576 18.7963 17.7316 18.7963 17.5763C18.7963 17.4209 18.9254 17.2949 19.0847 17.2949C19.2439 17.2949 19.373 17.4209 19.373 17.5763C19.373 17.7316 19.2439 17.8576 19.0847 17.8576Z" fill="#DB1B24"/>
<path d="M17.987 17.7448C17.7889 17.7448 17.6283 17.5881 17.6283 17.3949C17.6283 17.2016 17.7889 17.0449 17.987 17.0449C18.1851 17.0449 18.3457 17.2016 18.3457 17.3949C18.3457 17.5881 18.1851 17.7448 17.987 17.7448Z" fill="#DB1B24"/>
<path d="M18.4769 18.5453C18.3778 18.5453 18.2975 18.4669 18.2975 18.3703C18.2975 18.2737 18.3778 18.1953 18.4769 18.1953C18.576 18.1953 18.6562 18.2737 18.6562 18.3703C18.6562 18.4669 18.576 18.5453 18.4769 18.5453Z" fill="#DB1B24"/>
<path d="M18.1664 16.6937C18.0673 16.6937 17.987 16.6154 17.987 16.5187C17.987 16.4221 18.0673 16.3437 18.1664 16.3437C18.2654 16.3437 18.3457 16.4221 18.3457 16.5187C18.3457 16.6154 18.2654 16.6937 18.1664 16.6937Z" fill="#DB1B24"/>
<path d="M17.2249 18.3695C17.1259 18.3695 17.0456 18.2911 17.0456 18.1945C17.0456 18.0979 17.1259 18.0195 17.2249 18.0195C17.324 18.0195 17.4043 18.0979 17.4043 18.1945C17.4043 18.2911 17.324 18.3695 17.2249 18.3695Z" fill="#DB1B24"/>
<path d="M17.0453 17.4691C16.9462 17.4691 16.8659 17.3908 16.8659 17.2941C16.8659 17.1975 16.9462 17.1191 17.0453 17.1191C17.1443 17.1191 17.2246 17.1975 17.2246 17.2941C17.2246 17.3908 17.1443 17.4691 17.0453 17.4691Z" fill="#DB1B24"/>
<path d="M15.8226 19.4984C15.7235 19.4984 15.6433 19.4201 15.6433 19.3234C15.6433 19.2268 15.7235 19.1484 15.8226 19.1484C15.9217 19.1484 16.002 19.2268 16.002 19.3234C16.002 19.4201 15.9217 19.4984 15.8226 19.4984Z" fill="#DB1B24"/>
<path d="M19.391 18.8304C19.2919 18.8304 19.2116 18.7521 19.2116 18.6554C19.2116 18.5588 19.2919 18.4805 19.391 18.4805C19.49 18.4805 19.5703 18.5588 19.5703 18.6554C19.5703 18.7521 19.49 18.8304 19.391 18.8304Z" fill="#DB1B24"/>
<path d="M17.6964 19.2141C17.5352 19.2141 17.4045 19.0866 17.4045 18.9293C17.4045 18.772 17.5352 18.6445 17.6964 18.6445C17.8576 18.6445 17.9883 18.772 17.9883 18.9293C17.9883 19.0866 17.8576 19.2141 17.6964 19.2141Z" fill="#DB1B24"/>
<path d="M18.9483 19.4992C18.7871 19.4992 18.6565 19.3717 18.6565 19.2145C18.6565 19.0572 18.7871 18.9297 18.9483 18.9297C19.1096 18.9297 19.2402 19.0572 19.2402 19.2145C19.2402 19.3717 19.1096 19.4992 18.9483 19.4992Z" fill="#DB1B24"/>
<path d="M16.3937 18.9387C16.2325 18.9387 16.1018 18.8112 16.1018 18.6539C16.1018 18.4966 16.2325 18.3691 16.3937 18.3691C16.5549 18.3691 16.6855 18.4966 16.6855 18.6539C16.6855 18.8112 16.5549 18.9387 16.3937 18.9387Z" fill="#DB1B24"/>
<path d="M16.8656 19.5843C16.7665 19.5843 16.6862 19.506 16.6862 19.4094C16.6862 19.3127 16.7665 19.2344 16.8656 19.2344C16.9646 19.2344 17.0449 19.3127 17.0449 19.4094C17.0449 19.506 16.9646 19.5843 16.8656 19.5843Z" fill="#DB1B24"/>
<path fill-rule="evenodd" clip-rule="evenodd" d="M4.28906 15.9043C4.28906 15.749 4.41498 15.623 4.57031 15.623H15.1172C15.2725 15.623 15.3984 15.749 15.3984 15.9043C15.3984 16.0596 15.2725 16.1855 15.1172 16.1855H4.85156V18.1543C4.85156 18.3096 4.72564 18.4355 4.57031 18.4355C4.41498 18.4355 4.28906 18.3096 4.28906 18.1543V15.9043Z" fill="#FE666D"/>
<path d="M12.7073 12.2903H11.6842V8.34668L10.4629 8.72546V7.89355L12.5975 7.12891H12.7073V12.2903Z" fill="#FFEF9C"/>
<path fill-rule="evenodd" clip-rule="evenodd" d="M13.3121 12.2909C13.3121 12.6246 13.0416 12.8951 12.7079 12.8951H11.6849C11.3512 12.8951 11.0807 12.6246 11.0807 12.2909V9.16727L10.6425 9.30317C10.4592 9.36003 10.2597 9.32638 10.1051 9.2125C9.9506 9.09863 9.85938 8.91808 9.85938 8.72611V7.89421C9.85938 7.63909 10.0196 7.41146 10.2598 7.32543L12.3944 6.56078C12.4598 6.53736 12.5287 6.52539 12.5982 6.52539H12.7079C13.0416 6.52539 13.3121 6.79589 13.3121 7.12956V12.2909ZM11.6849 8.34733V12.2909H12.7079V7.12956H12.5982L10.4635 7.89421V8.72611L11.6849 8.34733Z" fill="#E89B05"/>
</svg>
