<svg width="20" height="20" viewBox="0 0 20 20" fill="none" xmlns="http://www.w3.org/2000/svg">
<path fill-rule="evenodd" clip-rule="evenodd" d="M1.66699 10.0119C1.66699 5.62195 5.17533 1.66602 10.017 1.66602C14.7503 1.66602 18.3337 5.54684 18.3337 9.98683C18.3337 15.1362 14.1337 18.3327 10.0003 18.3327C8.63366 18.3327 7.11699 17.9655 5.90033 17.2477C5.47533 16.989 5.11699 16.797 4.65866 16.9473L2.97533 17.448C2.55033 17.5816 2.16699 17.2477 2.29199 16.797L2.85033 14.9276C2.94199 14.6689 2.92533 14.3934 2.79199 14.1764C2.07533 12.8578 1.66699 11.414 1.66699 10.0119ZM8.91699 10.0119C8.91699 10.6044 9.39199 11.0801 9.98366 11.0885C10.5753 11.0885 11.0503 10.6044 11.0503 10.0202C11.0503 9.42766 10.5753 8.95194 9.98366 8.95194C9.40033 8.9436 8.91699 9.42766 8.91699 10.0119ZM12.7587 10.0202C12.7587 10.6044 13.2337 11.0885 13.8253 11.0885C14.417 11.0885 14.892 10.6044 14.892 10.0202C14.892 9.42766 14.417 8.95194 13.8253 8.95194C13.2337 8.95194 12.7587 9.42766 12.7587 10.0202ZM6.14199 11.0885C5.55866 11.0885 5.07533 10.6044 5.07533 10.0202C5.07533 9.42766 5.55033 8.95194 6.14199 8.95194C6.73366 8.95194 7.20866 9.42766 7.20866 10.0202C7.20866 10.6044 6.73366 11.0801 6.14199 11.0885Z" fill="#007A61"/>
</svg>
