<svg width="24" height="25" viewBox="0 0 24 25" fill="none" xmlns="http://www.w3.org/2000/svg">
<path fill-rule="evenodd" clip-rule="evenodd" d="M6.25 3.52344C3.5 3.52344 3.5 3.73144 3.5 6.27344V6.29844C3.5 7.40544 3.5 8.20544 3.771 8.54344C4.036 8.87144 4.823 9.02344 6.25 9.02344C7.677 9.02344 8.464 8.87044 8.729 8.54244C9 8.20544 9 7.40544 9 6.29744C9 3.73144 9 3.52344 6.25 3.52344ZM6.25 10.5234C4.564 10.5234 3.299 10.3464 2.604 9.48344C2 8.73444 2 7.71244 2 6.29844L2.75 6.27344H2C2 3.40344 2.181 2.02344 6.25 2.02344C10.319 2.02344 10.5 3.40344 10.5 6.27344C10.5 7.71144 10.5 8.73444 9.896 9.48344C9.201 10.3464 7.936 10.5234 6.25 10.5234Z" fill="#667085"/>
<path fill-rule="evenodd" clip-rule="evenodd" d="M17.25 3.52344C14.5 3.52344 14.5 3.73144 14.5 6.27344V6.29844C14.5 7.40544 14.5 8.20544 14.771 8.54344C15.036 8.87144 15.823 9.02344 17.25 9.02344C18.677 9.02344 19.464 8.87044 19.729 8.54244C20 8.20544 20 7.40544 20 6.29744C20 3.73144 20 3.52344 17.25 3.52344ZM17.25 10.5234C15.564 10.5234 14.299 10.3464 13.604 9.48344C13 8.73444 13 7.71244 13 6.29844L13.75 6.27344H13C13 3.40344 13.181 2.02344 17.25 2.02344C21.319 2.02344 21.5 3.40344 21.5 6.27344C21.5 7.71144 21.5 8.73444 20.896 9.48344C20.201 10.3464 18.936 10.5234 17.25 10.5234Z" fill="#667085"/>
<path fill-rule="evenodd" clip-rule="evenodd" d="M6.25 14.5234C3.5 14.5234 3.5 14.7314 3.5 17.2734V17.2984C3.5 18.4054 3.5 19.2054 3.771 19.5434C4.036 19.8714 4.823 20.0234 6.25 20.0234C7.677 20.0234 8.464 19.8704 8.729 19.5424C9 19.2054 9 18.4054 9 17.2974C9 14.7314 9 14.5234 6.25 14.5234ZM6.25 21.5234C4.564 21.5234 3.299 21.3464 2.604 20.4834C2 19.7344 2 18.7124 2 17.2984L2.75 17.2734H2C2 14.4034 2.181 13.0234 6.25 13.0234C10.319 13.0234 10.5 14.4034 10.5 17.2734C10.5 18.7114 10.5 19.7344 9.896 20.4834C9.201 21.3464 7.936 21.5234 6.25 21.5234Z" fill="#667085"/>
<path fill-rule="evenodd" clip-rule="evenodd" d="M17.25 14.5234C14.5 14.5234 14.5 14.7314 14.5 17.2734V17.2984C14.5 18.4054 14.5 19.2054 14.771 19.5434C15.036 19.8714 15.823 20.0234 17.25 20.0234C18.677 20.0234 19.464 19.8704 19.729 19.5424C20 19.2054 20 18.4054 20 17.2974C20 14.7314 20 14.5234 17.25 14.5234ZM17.25 21.5234C15.564 21.5234 14.299 21.3464 13.604 20.4834C13 19.7344 13 18.7124 13 17.2984L13.75 17.2734H13C13 14.4034 13.181 13.0234 17.25 13.0234C21.319 13.0234 21.5 14.4034 21.5 17.2734C21.5 18.7114 21.5 19.7344 20.896 20.4834C20.201 21.3464 18.936 21.5234 17.25 21.5234Z" fill="#667085"/>
</svg>
