<svg width="203" height="220" viewBox="0 0 203 220" fill="none" xmlns="http://www.w3.org/2000/svg">
<circle cx="100.932" cy="100.522" r="100.522" fill="#D9D9D9"/>
<path opacity="0.4" d="M117.059 137.748H84.7927C72.1743 137.748 63.6973 128.898 63.6973 115.724V85.3153C63.6973 72.1409 72.1743 63.2871 84.7927 63.2871H117.063C129.681 63.2871 138.158 72.1409 138.158 85.3153V115.724C138.158 128.898 129.681 137.748 117.059 137.748Z" fill="white"/>
<path fill-rule="evenodd" clip-rule="evenodd" d="M98.1302 88.1422C98.1302 93.2428 93.979 97.394 88.8784 97.394C83.7741 97.394 79.6267 93.2428 79.6267 88.1422C79.6267 83.0416 83.7741 78.8867 88.8784 78.8867C93.979 78.8867 98.1302 83.0416 98.1302 88.1422ZM128.487 108.29C129.355 109.132 129.977 110.092 130.386 111.116C131.626 114.214 130.982 117.937 129.657 121.004C128.085 124.657 125.077 127.415 121.287 128.622C119.604 129.162 117.84 129.392 116.079 129.392H84.8757C81.7707 129.392 79.0231 128.67 76.7707 127.315C75.3596 126.466 75.1102 124.511 76.1563 123.238C77.9062 121.116 79.6337 118.986 81.3761 116.838C84.697 112.728 86.9346 111.537 89.4216 112.583C90.4305 113.015 91.4432 113.666 92.4856 114.351C95.263 116.19 99.1238 118.715 104.209 115.975C107.686 114.074 109.704 110.821 111.46 107.99L111.495 107.933C111.614 107.743 111.731 107.554 111.848 107.365C112.445 106.4 113.033 105.45 113.7 104.575C114.526 103.491 117.594 100.103 121.559 102.516C124.087 104.035 126.213 106.09 128.487 108.29Z" fill="white"/>
<g filter="url(#filter0_d_2765_105128)">
<circle cx="162.365" cy="175.914" r="25.1306" fill="white"/>
<path d="M164.398 185.734H172.836" stroke="#17191C" stroke-width="2.79228" stroke-linecap="round" stroke-linejoin="round"/>
<path fill-rule="evenodd" clip-rule="evenodd" d="M163.271 166.366C164.174 165.288 165.796 165.129 166.897 166.014C166.958 166.061 168.913 167.581 168.913 167.581C170.123 168.312 170.498 169.866 169.751 171.052C169.711 171.116 158.654 184.946 158.654 184.946C158.287 185.405 157.728 185.676 157.131 185.682L152.897 185.736L151.943 181.698C151.81 181.13 151.943 180.533 152.311 180.075L163.271 166.366Z" stroke="#17191C" stroke-width="2.79228" stroke-linecap="round" stroke-linejoin="round"/>
<path d="M161.225 168.932L167.568 173.803" stroke="#17191C" stroke-width="2.79228" stroke-linecap="round" stroke-linejoin="round"/>
</g>
<defs>
<filter id="filter0_d_2765_105128" x="122.479" y="139.717" width="79.7728" height="79.7728" filterUnits="userSpaceOnUse" color-interpolation-filters="sRGB">
<feFlood flood-opacity="0" result="BackgroundImageFix"/>
<feColorMatrix in="SourceAlpha" type="matrix" values="0 0 0 0 0 0 0 0 0 0 0 0 0 0 0 0 0 0 127 0" result="hardAlpha"/>
<feOffset dy="3.68889"/>
<feGaussianBlur stdDeviation="7.37778"/>
<feComposite in2="hardAlpha" operator="out"/>
<feColorMatrix type="matrix" values="0 0 0 0 0 0 0 0 0 0 0 0 0 0 0 0 0 0 0.15 0"/>
<feBlend mode="normal" in2="BackgroundImageFix" result="effect1_dropShadow_2765_105128"/>
<feBlend mode="normal" in="SourceGraphic" in2="effect1_dropShadow_2765_105128" result="shape"/>
</filter>
</defs>
</svg>
