<svg width="86" height="44" viewBox="0 0 86 44" fill="none" xmlns="http://www.w3.org/2000/svg">
<g filter="url(#filter0_d_5348_22086)">
<rect x="2" y="1" width="82" height="40" rx="8" fill="#007A61"/>
<rect x="2.5" y="1.5" width="81" height="39" rx="7.5" stroke="#007A61"/>
<path d="M27.167 12.666H25.5003C21.3337 12.666 19.667 14.3327 19.667 18.4993V23.4993C19.667 27.666 21.3337 29.3327 25.5003 29.3327H30.5003C34.667 29.3327 36.3337 27.666 36.3337 23.4993V21.8327" stroke="white" stroke-width="1.5" stroke-linecap="round" stroke-linejoin="round"/>
<path d="M31.3666 13.5164L24.7999 20.0831C24.5499 20.3331 24.2999 20.8247 24.2499 21.1831L23.8916 23.6914C23.7582 24.5997 24.3999 25.2331 25.3082 25.1081L27.8166 24.7497C28.1666 24.6997 28.6582 24.4497 28.9166 24.1997L35.4832 17.6331C36.6166 16.4997 37.1499 15.1831 35.4832 13.5164C33.8166 11.8497 32.4999 12.3831 31.3666 13.5164Z" stroke="white" stroke-width="1.5" stroke-miterlimit="10" stroke-linecap="round" stroke-linejoin="round"/>
<path d="M30.4248 14.459C30.9831 16.4507 32.5415 18.009 34.5415 18.5757" stroke="white" stroke-width="1.5" stroke-miterlimit="10" stroke-linecap="round" stroke-linejoin="round"/>
<path d="M47.0527 16.4502H52.4668V17.667H48.4199V20.5791H52.3301V21.8027H48.4199V24.7695H52.5967V25.9863H47.0527V16.4502ZM58.0791 16.4502H59.3301V26H56.6709C55.7412 26 54.9984 25.7061 54.4424 25.1182C53.891 24.5303 53.6152 23.7419 53.6152 22.7529C53.6152 21.8278 53.9046 21.0667 54.4834 20.4697C55.0667 19.8727 55.8096 19.5742 56.7119 19.5742C57.1312 19.5742 57.5869 19.6631 58.0791 19.8408V16.4502ZM58.0791 24.9336V20.9482C57.6917 20.7523 57.2998 20.6543 56.9033 20.6543C56.2835 20.6543 55.7891 20.8571 55.4199 21.2627C55.0553 21.6683 54.873 22.2152 54.873 22.9033C54.873 23.5505 55.0326 24.0495 55.3516 24.4004C55.543 24.61 55.7458 24.7513 55.96 24.8242C56.1742 24.8971 56.5592 24.9336 57.1152 24.9336H58.0791ZM61.6611 17.0654C61.8662 17.0654 62.0417 17.1361 62.1875 17.2773C62.3333 17.4186 62.4062 17.5918 62.4062 17.7969C62.4062 17.9974 62.3333 18.1706 62.1875 18.3164C62.0417 18.4622 61.8662 18.5352 61.6611 18.5352C61.4697 18.5352 61.3011 18.4622 61.1553 18.3164C61.0094 18.166 60.9365 17.9928 60.9365 17.7969C60.9365 17.6055 61.0094 17.4368 61.1553 17.291C61.3011 17.1406 61.4697 17.0654 61.6611 17.0654ZM61.0459 19.7109H62.29V26H61.0459V19.7109ZM63.2129 20.709L65.5508 18.4121V19.7109H67.54V20.832H65.5508V23.915C65.5508 24.6351 65.8493 24.9951 66.4463 24.9951C66.8929 24.9951 67.3646 24.8447 67.8613 24.5439V25.7061C67.3828 25.9749 66.861 26.1094 66.2959 26.1094C65.7262 26.1094 65.2523 25.943 64.874 25.6104C64.7555 25.5101 64.6576 25.3984 64.5801 25.2754C64.5026 25.1478 64.4365 24.9837 64.3818 24.7832C64.3317 24.5781 64.3066 24.1908 64.3066 23.6211V20.832H63.2129V20.709Z" fill="white"/>
</g>
<defs>
<filter id="filter0_d_5348_22086" x="0" y="0" width="86" height="44" filterUnits="userSpaceOnUse" color-interpolation-filters="sRGB">
<feFlood flood-opacity="0" result="BackgroundImageFix"/>
<feColorMatrix in="SourceAlpha" type="matrix" values="0 0 0 0 0 0 0 0 0 0 0 0 0 0 0 0 0 0 127 0" result="hardAlpha"/>
<feOffset dy="1"/>
<feGaussianBlur stdDeviation="1"/>
<feColorMatrix type="matrix" values="0 0 0 0 0.0627451 0 0 0 0 0.0941176 0 0 0 0 0.156863 0 0 0 0.05 0"/>
<feBlend mode="normal" in2="BackgroundImageFix" result="effect1_dropShadow_5348_22086"/>
<feBlend mode="normal" in="SourceGraphic" in2="effect1_dropShadow_5348_22086" result="shape"/>
</filter>
</defs>
</svg>
