<svg width="16" height="16" viewBox="0 0 16 16" fill="none" xmlns="http://www.w3.org/2000/svg">
<path d="M7.33203 1.33398H5.9987C2.66536 1.33398 1.33203 2.66732 1.33203 6.00065V10.0007C1.33203 13.334 2.66536 14.6673 5.9987 14.6673H9.9987C13.332 14.6673 14.6654 13.334 14.6654 10.0007V8.66732" stroke="#007A61" stroke-linecap="round" stroke-linejoin="round"/>
<path d="M10.6933 2.0135L5.43992 7.26684C5.23992 7.46684 5.03992 7.86017 4.99992 8.14684L4.71325 10.1535C4.60659 10.8802 5.11992 11.3868 5.84659 11.2868L7.85325 11.0002C8.13325 10.9602 8.52659 10.7602 8.73325 10.5602L13.9866 5.30684C14.8933 4.40017 15.3199 3.34684 13.9866 2.0135C12.6533 0.680168 11.5999 1.10684 10.6933 2.0135Z" stroke="#007A61" stroke-miterlimit="10" stroke-linecap="round" stroke-linejoin="round"/>
<path d="M9.94141 2.76758C10.3881 4.36091 11.6347 5.60758 13.2347 6.06091" stroke="#007A61" stroke-miterlimit="10" stroke-linecap="round" stroke-linejoin="round"/>
</svg>
