<svg width="17" height="17" viewBox="0 0 17 17" fill="none" xmlns="http://www.w3.org/2000/svg">
<path d="M8.3125 1.82422H6.97917C3.64583 1.82422 2.3125 3.15755 2.3125 6.49089V10.4909C2.3125 13.8242 3.64583 15.1576 6.97917 15.1576H10.9792C14.3125 15.1576 15.6458 13.8242 15.6458 10.4909V9.15755" stroke="#007A61" stroke-linecap="round" stroke-linejoin="round"/>
<path d="M11.6727 2.50374L6.41941 7.75707C6.21941 7.95707 6.01941 8.3504 5.97941 8.63707L5.69274 10.6437C5.58608 11.3704 6.09941 11.8771 6.82608 11.7771L8.83274 11.4904C9.11274 11.4504 9.50608 11.2504 9.71275 11.0504L14.9661 5.79707C15.8727 4.8904 16.2994 3.83707 14.9661 2.50374C13.6327 1.1704 12.5794 1.59707 11.6727 2.50374Z" stroke="#007A61" stroke-miterlimit="10" stroke-linecap="round" stroke-linejoin="round"/>
<path d="M10.9199 3.25781C11.3666 4.85115 12.6133 6.09781 14.2133 6.55115" stroke="#007A61" stroke-miterlimit="10" stroke-linecap="round" stroke-linejoin="round"/>
</svg>
