<svg width="456" height="72" viewBox="0 0 456 72" fill="none" xmlns="http://www.w3.org/2000/svg">
<g clip-path="url(#clip0_2765_111779)">
<rect width="456" height="72" rx="8" fill="white"/>
<rect x="16" y="14" width="32" height="32" rx="16" fill="#F7FFFD"/>
<rect x="16" y="14" width="32" height="32" rx="16" stroke="#EDF9F6" stroke-width="4"/>
<path d="M27.3333 36H36.6667C37.403 36 38 35.403 38 34.6667V25.3333C38 24.597 37.403 24 36.6667 24H27.3333C26.597 24 26 24.597 26 25.3333V34.6667C26 35.403 26.597 36 27.3333 36ZM27.3333 36L34.6667 28.6667L38 32M30.6667 27.6667C30.6667 28.219 30.219 28.6667 29.6667 28.6667C29.1144 28.6667 28.6667 28.219 28.6667 27.6667C28.6667 27.1144 29.1144 26.6667 29.6667 26.6667C30.219 26.6667 30.6667 27.1144 30.6667 27.6667Z" stroke="#007A61" stroke-width="1.33333" stroke-linecap="round" stroke-linejoin="round"/>
<path d="M65.5273 21.4502V31H63.1484V21.4502H65.5273ZM73.9971 21.4502V31H71.9668V30.4805C71.4473 30.9089 70.8503 31.123 70.1758 31.123C69.3145 31.123 68.5944 30.804 68.0156 30.166C67.4414 29.528 67.1543 28.7282 67.1543 27.7666C67.1543 26.7822 67.446 25.9779 68.0293 25.3535C68.6172 24.7292 69.3691 24.417 70.2852 24.417C70.8548 24.417 71.4154 24.5537 71.9668 24.8271V21.4502H73.9971ZM71.9668 29.2363V26.1533C71.5977 25.9027 71.2194 25.7773 70.832 25.7773C70.3216 25.7773 69.9229 25.9551 69.6357 26.3105C69.3532 26.666 69.2119 27.165 69.2119 27.8076C69.2119 28.4001 69.3532 28.8763 69.6357 29.2363C69.9183 29.5918 70.2943 29.7695 70.7637 29.7695C71.1784 29.7695 71.5794 29.5918 71.9668 29.2363ZM85.2012 29.2363V30.6924C84.4082 30.9795 83.6813 31.123 83.0205 31.123C81.8857 31.123 80.9788 30.82 80.2998 30.2139C79.6208 29.6032 79.2812 28.7965 79.2812 27.7939C79.2812 26.8141 79.623 26.0075 80.3066 25.374C80.9948 24.736 81.8698 24.417 82.9316 24.417C83.6152 24.417 84.3398 24.5583 85.1055 24.8408V26.3516C84.5449 26.0645 83.9935 25.9209 83.4512 25.9209C82.8451 25.9209 82.3597 26.0895 81.9951 26.4268C81.6305 26.764 81.4482 27.2152 81.4482 27.7803C81.4482 28.3499 81.626 28.8102 81.9814 29.1611C82.3369 29.5075 82.804 29.6807 83.3828 29.6807C83.8112 29.6807 84.4173 29.5326 85.2012 29.2363ZM93.1514 29.4072V30.5352C92.4769 30.9271 91.8434 31.123 91.251 31.123C90.613 31.123 90.2347 30.8815 90.1162 30.3984C89.4098 30.8815 88.7012 31.123 87.9902 31.123C87.4889 31.123 87.0628 30.9658 86.7119 30.6514C86.361 30.3324 86.1855 29.9632 86.1855 29.5439C86.1855 28.9834 86.3656 28.5322 86.7256 28.1904C87.0902 27.8441 88.1885 27.3997 90.0205 26.8574C90.0661 26.1374 89.6924 25.7773 88.8994 25.7773C88.0381 25.7773 87.2451 26.1374 86.5205 26.8574V25.2031C87.3682 24.679 88.3001 24.417 89.3164 24.417C91.1393 24.417 92.0508 25.071 92.0508 26.3789V29.3184C92.0508 29.6191 92.1624 29.7695 92.3857 29.7695C92.5544 29.7695 92.8096 29.6488 93.1514 29.4072ZM90.0205 29.4346V27.876C89.3415 28.113 88.8743 28.3271 88.6191 28.5186C88.3685 28.7054 88.2432 28.9447 88.2432 29.2363C88.2432 29.4232 88.307 29.585 88.4346 29.7217C88.5622 29.8538 88.7171 29.9199 88.8994 29.9199C89.2822 29.9199 89.6559 29.7581 90.0205 29.4346ZM96.084 24.5469V26.3926H96.1113C96.6992 25.0755 97.3851 24.417 98.1689 24.417C98.5426 24.417 98.9915 24.613 99.5156 25.0049L98.9551 26.8027C98.4538 26.4837 98.0527 26.3242 97.752 26.3242C97.2826 26.3242 96.8861 26.6159 96.5625 27.1992C96.2435 27.778 96.084 28.1152 96.084 28.2109V31H94.0537V24.5469H96.084ZM106.55 21.4502V31H104.52V30.4805C104 30.9089 103.403 31.123 102.729 31.123C101.867 31.123 101.147 30.804 100.568 30.166C99.9941 29.528 99.707 28.7282 99.707 27.7666C99.707 26.7822 99.9987 25.9779 100.582 25.3535C101.17 24.7292 101.922 24.417 102.838 24.417C103.408 24.417 103.968 24.5537 104.52 24.8271V21.4502H106.55ZM104.52 29.2363V26.1533C104.15 25.9027 103.772 25.7773 103.385 25.7773C102.874 25.7773 102.476 25.9551 102.188 26.3105C101.906 26.666 101.765 27.165 101.765 27.8076C101.765 28.4001 101.906 28.8763 102.188 29.2363C102.471 29.5918 102.847 29.7695 103.316 29.7695C103.731 29.7695 104.132 29.5918 104.52 29.2363ZM112.34 21.4502H116.469C117.453 21.4502 118.226 21.6872 118.786 22.1611C119.351 22.6351 119.634 23.1956 119.634 23.8428C119.634 24.6722 119.199 25.3079 118.328 25.75C118.984 25.9232 119.486 26.2285 119.832 26.666C120.183 27.1035 120.358 27.6139 120.358 28.1973C120.358 29.0267 120.074 29.7012 119.504 30.2207C118.934 30.7402 118.096 31 116.988 31H112.34V21.4502ZM114.719 23.2002V25.2441H115.963C116.346 25.2441 116.644 25.1462 116.858 24.9502C117.073 24.7542 117.18 24.5081 117.18 24.2119C117.18 23.9202 117.073 23.6787 116.858 23.4873C116.644 23.2959 116.346 23.2002 115.963 23.2002H114.719ZM114.719 26.9941V29.25H116.059C116.692 29.25 117.148 29.1634 117.426 28.9902C117.704 28.8125 117.843 28.5072 117.843 28.0742C117.843 27.7415 117.711 27.4795 117.446 27.2881C117.182 27.0921 116.829 26.9941 116.387 26.9941H114.719ZM128.479 29.4072V30.5352C127.805 30.9271 127.172 31.123 126.579 31.123C125.941 31.123 125.563 30.8815 125.444 30.3984C124.738 30.8815 124.029 31.123 123.318 31.123C122.817 31.123 122.391 30.9658 122.04 30.6514C121.689 30.3324 121.514 29.9632 121.514 29.5439C121.514 28.9834 121.694 28.5322 122.054 28.1904C122.418 27.8441 123.517 27.3997 125.349 26.8574C125.394 26.1374 125.021 25.7773 124.228 25.7773C123.366 25.7773 122.573 26.1374 121.849 26.8574V25.2031C122.696 24.679 123.628 24.417 124.645 24.417C126.467 24.417 127.379 25.071 127.379 26.3789V29.3184C127.379 29.6191 127.491 29.7695 127.714 29.7695C127.882 29.7695 128.138 29.6488 128.479 29.4072ZM125.349 29.4346V27.876C124.67 28.113 124.202 28.3271 123.947 28.5186C123.697 28.7054 123.571 28.9447 123.571 29.2363C123.571 29.4232 123.635 29.585 123.763 29.7217C123.89 29.8538 124.045 29.9199 124.228 29.9199C124.61 29.9199 124.984 29.7581 125.349 29.4346ZM134.967 29.2363V30.6924C134.174 30.9795 133.447 31.123 132.786 31.123C131.651 31.123 130.744 30.82 130.065 30.2139C129.386 29.6032 129.047 28.7965 129.047 27.7939C129.047 26.8141 129.389 26.0075 130.072 25.374C130.76 24.736 131.635 24.417 132.697 24.417C133.381 24.417 134.105 24.5583 134.871 24.8408V26.3516C134.311 26.0645 133.759 25.9209 133.217 25.9209C132.611 25.9209 132.125 26.0895 131.761 26.4268C131.396 26.764 131.214 27.2152 131.214 27.7803C131.214 28.3499 131.392 28.8102 131.747 29.1611C132.103 29.5075 132.57 29.6807 133.148 29.6807C133.577 29.6807 134.183 29.5326 134.967 29.2363ZM138.398 21.4502V27.7393H138.426L140.935 24.5469H143.313L140.791 27.7393L143.423 31H140.935L138.426 27.8213H138.398V31H136.368V21.4502H138.398ZM143.881 29.9062C143.881 29.5736 143.999 29.2887 144.236 29.0518C144.478 28.8102 144.765 28.6895 145.098 28.6895C145.435 28.6895 145.722 28.8102 145.959 29.0518C146.201 29.2887 146.321 29.5736 146.321 29.9062C146.321 30.2435 146.201 30.5306 145.959 30.7676C145.722 31.0046 145.435 31.123 145.098 31.123C144.765 31.123 144.478 31.0046 144.236 30.7676C143.999 30.5306 143.881 30.2435 143.881 29.9062ZM147.682 29.9062C147.682 29.5736 147.8 29.2887 148.037 29.0518C148.279 28.8102 148.566 28.6895 148.898 28.6895C149.236 28.6895 149.523 28.8102 149.76 29.0518C150.001 29.2887 150.122 29.5736 150.122 29.9062C150.122 30.2435 150.001 30.5306 149.76 30.7676C149.523 31.0046 149.236 31.123 148.898 31.123C148.566 31.123 148.279 31.0046 148.037 30.7676C147.8 30.5306 147.682 30.2435 147.682 29.9062ZM151.482 29.9062C151.482 29.5736 151.601 29.2887 151.838 29.0518C152.079 28.8102 152.367 28.6895 152.699 28.6895C153.036 28.6895 153.324 28.8102 153.561 29.0518C153.802 29.2887 153.923 29.5736 153.923 29.9062C153.923 30.2435 153.802 30.5306 153.561 30.7676C153.324 31.0046 153.036 31.123 152.699 31.123C152.367 31.123 152.079 31.0046 151.838 30.7676C151.601 30.5306 151.482 30.2435 151.482 29.9062ZM157.915 22.4482C157.915 22.1383 158.024 21.874 158.243 21.6553C158.462 21.4365 158.726 21.3271 159.036 21.3271C159.341 21.3271 159.604 21.4365 159.822 21.6553C160.041 21.874 160.15 22.1383 160.15 22.4482C160.15 22.7536 160.041 23.0179 159.822 23.2412C159.604 23.46 159.341 23.5693 159.036 23.5693C158.726 23.5693 158.462 23.46 158.243 23.2412C158.024 23.0179 157.915 22.7536 157.915 22.4482ZM160.055 24.5469V31.1846C160.055 32.0687 159.834 32.7751 159.392 33.3037C158.954 33.8324 158.364 34.1377 157.621 34.2197L156.979 32.3877C157.676 32.2829 158.024 31.7178 158.024 30.6924V24.5469H160.055ZM163.732 24.5469V25.1074C164.275 24.6471 164.89 24.417 165.578 24.417C166.417 24.417 167.125 24.7337 167.704 25.3672C168.283 26.0007 168.572 26.7777 168.572 27.6982C168.572 28.7327 168.281 29.5622 167.697 30.1865C167.118 30.8109 166.351 31.123 165.394 31.123C164.801 31.123 164.247 30.9749 163.732 30.6787V34.2197H161.702V24.5469H163.732ZM163.732 26.3789V29.3457C164.115 29.6283 164.507 29.7695 164.908 29.7695C165.4 29.7695 165.79 29.5941 166.077 29.2432C166.369 28.8877 166.515 28.4092 166.515 27.8076C166.515 27.1924 166.38 26.7139 166.111 26.3721C165.847 26.0303 165.473 25.8594 164.99 25.8594C164.585 25.8594 164.165 26.0326 163.732 26.3789ZM176.481 24.5469V25.9072H175.559C175.773 26.2718 175.88 26.6296 175.88 26.9805C175.88 27.4818 175.693 27.9443 175.319 28.3682C174.946 28.792 174.392 29.0449 173.658 29.127C172.929 29.2044 172.514 29.2796 172.414 29.3525C172.318 29.4209 172.271 29.512 172.271 29.626C172.271 29.7399 172.334 29.8333 172.462 29.9062C172.59 29.9746 173.091 30.0475 173.966 30.125C174.845 30.1979 175.456 30.4281 175.798 30.8154C176.144 31.1982 176.317 31.6107 176.317 32.0527C176.317 32.7591 176.023 33.2969 175.436 33.666C174.852 34.0352 174.007 34.2197 172.899 34.2197C171.769 34.2197 170.912 34.0488 170.329 33.707C169.746 33.3652 169.454 32.9118 169.454 32.3467C169.454 31.5628 170.028 31.016 171.177 30.7061C170.657 30.5511 170.397 30.2708 170.397 29.8652C170.397 29.3913 170.789 29.0654 171.573 28.8877C171.049 28.7965 170.616 28.5687 170.274 28.2041C169.933 27.8395 169.762 27.4043 169.762 26.8984C169.762 26.2786 170.008 25.7318 170.5 25.2578C170.992 24.7839 171.708 24.5469 172.646 24.5469H176.481ZM172.831 25.75C172.498 25.75 172.218 25.8639 171.99 26.0918C171.767 26.3197 171.655 26.5977 171.655 26.9258C171.655 27.2402 171.771 27.5137 172.004 27.7461C172.236 27.974 172.512 28.0879 172.831 28.0879C173.15 28.0879 173.424 27.9671 173.651 27.7256C173.879 27.484 173.993 27.1947 173.993 26.8574C173.993 26.5521 173.882 26.2923 173.658 26.0781C173.439 25.8594 173.164 25.75 172.831 25.75ZM172.995 33.0166C173.428 33.0166 173.779 32.9368 174.048 32.7773C174.317 32.6178 174.451 32.4264 174.451 32.2031C174.451 31.7292 173.925 31.4922 172.872 31.4922C172.394 31.4922 172.018 31.5605 171.744 31.6973C171.471 31.8385 171.334 32.0254 171.334 32.2578C171.334 32.7637 171.888 33.0166 172.995 33.0166Z" fill="#344054"/>
<path d="M64.8848 49.6807H68.5215V51H62.4785V50.9043L63.0527 50.2275C63.9505 49.1156 64.6637 48.1722 65.1924 47.3975C65.7256 46.6227 66.0719 46.0371 66.2314 45.6406C66.3955 45.2441 66.4775 44.8522 66.4775 44.4648C66.4775 43.9271 66.3249 43.4964 66.0195 43.1729C65.7142 42.8447 65.3086 42.6807 64.8027 42.6807C64.4199 42.6807 64.0417 42.7946 63.668 43.0225C63.2988 43.2458 62.9661 43.5625 62.6699 43.9727V42.2363C63.4128 41.6302 64.1784 41.3271 64.9668 41.3271C65.8008 41.3271 66.4867 41.6051 67.0244 42.1611C67.5667 42.7171 67.8379 43.4235 67.8379 44.2803C67.8379 44.6631 67.7695 45.0732 67.6328 45.5107C67.5007 45.9437 67.2637 46.445 66.9219 47.0146C66.5801 47.5798 65.999 48.3522 65.1787 49.332L64.8848 49.6807ZM72.5547 41.3271C73.4297 41.3271 74.152 41.7874 74.7217 42.708C75.2959 43.624 75.583 44.7884 75.583 46.2012C75.583 47.6504 75.2959 48.8285 74.7217 49.7354C74.152 50.6423 73.4115 51.0957 72.5 51.0957C71.5749 51.0957 70.832 50.6514 70.2715 49.7627C69.7109 48.874 69.4307 47.696 69.4307 46.2285C69.4307 44.7793 69.7201 43.6012 70.2988 42.6943C70.8776 41.7829 71.6296 41.3271 72.5547 41.3271ZM72.5684 42.626H72.5C71.9759 42.626 71.5589 42.9495 71.249 43.5967C70.9437 44.2393 70.791 45.112 70.791 46.2148C70.791 47.3451 70.9414 48.2314 71.2422 48.874C71.543 49.5166 71.9577 49.8379 72.4863 49.8379C73.015 49.8379 73.432 49.5166 73.7373 48.874C74.0426 48.2314 74.1953 47.3587 74.1953 46.2559C74.1953 45.1484 74.0472 44.2666 73.751 43.6104C73.4593 42.9541 73.0651 42.626 72.5684 42.626ZM79.5547 41.3271C80.4297 41.3271 81.152 41.7874 81.7217 42.708C82.2959 43.624 82.583 44.7884 82.583 46.2012C82.583 47.6504 82.2959 48.8285 81.7217 49.7354C81.152 50.6423 80.4115 51.0957 79.5 51.0957C78.5749 51.0957 77.832 50.6514 77.2715 49.7627C76.7109 48.874 76.4307 47.696 76.4307 46.2285C76.4307 44.7793 76.7201 43.6012 77.2988 42.6943C77.8776 41.7829 78.6296 41.3271 79.5547 41.3271ZM79.5684 42.626H79.5C78.9759 42.626 78.5589 42.9495 78.249 43.5967C77.9437 44.2393 77.791 45.112 77.791 46.2148C77.791 47.3451 77.9414 48.2314 78.2422 48.874C78.543 49.5166 78.9577 49.8379 79.4863 49.8379C80.015 49.8379 80.432 49.5166 80.7373 48.874C81.0426 48.2314 81.1953 47.3587 81.1953 46.2559C81.1953 45.1484 81.0472 44.2666 80.751 43.6104C80.4593 42.9541 80.0651 42.626 79.5684 42.626ZM93.3496 41.4502H95.0586L90.916 45.9756L96.0771 51H94.2041L89.3301 46.2832V51H87.9629V41.4502H89.3301V45.8184L93.3496 41.4502ZM100.37 51H97.1367V41.4502H99.6387C100.427 41.4502 101.042 41.5573 101.484 41.7715C101.926 41.9811 102.264 42.2728 102.496 42.6465C102.729 43.0156 102.845 43.444 102.845 43.9316C102.845 44.8704 102.359 45.5426 101.389 45.9482C102.086 46.0804 102.64 46.3675 103.05 46.8096C103.465 47.2516 103.672 47.7803 103.672 48.3955C103.672 48.8831 103.547 49.3184 103.296 49.7012C103.045 50.084 102.676 50.3962 102.188 50.6377C101.705 50.8792 101.099 51 100.37 51ZM99.6797 42.667H98.5039V45.5381H99.4131C100.142 45.5381 100.66 45.3991 100.965 45.1211C101.275 44.8431 101.43 44.4831 101.43 44.041C101.43 43.125 100.846 42.667 99.6797 42.667ZM99.7822 46.7549H98.5039V49.7832H99.8506C100.598 49.7832 101.104 49.7262 101.368 49.6123C101.637 49.4938 101.851 49.3115 102.011 49.0654C102.175 48.8193 102.257 48.555 102.257 48.2725C102.257 47.9808 102.17 47.7142 101.997 47.4727C101.828 47.2311 101.587 47.0511 101.272 46.9326C100.958 46.8141 100.461 46.7549 99.7822 46.7549ZM107.76 47.0078H114.992V47.9033H107.76V47.0078ZM121.596 41.4502H122.963V51H121.596V41.4502ZM129.32 41.3271C130.195 41.3271 130.918 41.7874 131.487 42.708C132.062 43.624 132.349 44.7884 132.349 46.2012C132.349 47.6504 132.062 48.8285 131.487 49.7354C130.918 50.6423 130.177 51.0957 129.266 51.0957C128.34 51.0957 127.598 50.6514 127.037 49.7627C126.477 48.874 126.196 47.696 126.196 46.2285C126.196 44.7793 126.486 43.6012 127.064 42.6943C127.643 41.7829 128.395 41.3271 129.32 41.3271ZM129.334 42.626H129.266C128.742 42.626 128.325 42.9495 128.015 43.5967C127.709 44.2393 127.557 45.112 127.557 46.2148C127.557 47.3451 127.707 48.2314 128.008 48.874C128.309 49.5166 128.723 49.8379 129.252 49.8379C129.781 49.8379 130.198 49.5166 130.503 48.874C130.808 48.2314 130.961 47.3587 130.961 46.2559C130.961 45.1484 130.813 44.2666 130.517 43.6104C130.225 42.9541 129.831 42.626 129.334 42.626ZM136.32 41.3271C137.195 41.3271 137.918 41.7874 138.487 42.708C139.062 43.624 139.349 44.7884 139.349 46.2012C139.349 47.6504 139.062 48.8285 138.487 49.7354C137.918 50.6423 137.177 51.0957 136.266 51.0957C135.34 51.0957 134.598 50.6514 134.037 49.7627C133.477 48.874 133.196 47.696 133.196 46.2285C133.196 44.7793 133.486 43.6012 134.064 42.6943C134.643 41.7829 135.395 41.3271 136.32 41.3271ZM136.334 42.626H136.266C135.742 42.626 135.325 42.9495 135.015 43.5967C134.709 44.2393 134.557 45.112 134.557 46.2148C134.557 47.3451 134.707 48.2314 135.008 48.874C135.309 49.5166 135.723 49.8379 136.252 49.8379C136.781 49.8379 137.198 49.5166 137.503 48.874C137.808 48.2314 137.961 47.3587 137.961 46.2559C137.961 45.1484 137.813 44.2666 137.517 43.6104C137.225 42.9541 136.831 42.626 136.334 42.626ZM147.087 41.3135H148.133L141.851 51.1094H140.798L147.087 41.3135ZM146.745 46.8438C147.328 46.8438 147.83 47.0534 148.249 47.4727C148.668 47.8874 148.878 48.3864 148.878 48.9697C148.878 49.5531 148.668 50.0498 148.249 50.46C147.834 50.8656 147.333 51.0684 146.745 51.0684C146.153 51.0684 145.647 50.8656 145.228 50.46C144.813 50.0498 144.605 49.5531 144.605 48.9697C144.605 48.3818 144.815 47.8805 145.234 47.4658C145.654 47.0511 146.157 46.8438 146.745 46.8438ZM146.731 47.876C146.431 47.876 146.173 47.9831 145.959 48.1973C145.749 48.4115 145.645 48.6689 145.645 48.9697C145.645 49.2751 145.749 49.5371 145.959 49.7559C146.173 49.9701 146.431 50.0771 146.731 50.0771C147.041 50.0771 147.303 49.9701 147.518 49.7559C147.732 49.5417 147.839 49.2796 147.839 48.9697C147.839 48.6644 147.732 48.4069 147.518 48.1973C147.303 47.9831 147.041 47.876 146.731 47.876ZM142.24 41.3408C142.828 41.3408 143.329 41.5505 143.744 41.9697C144.159 42.389 144.366 42.8926 144.366 43.4805C144.366 44.0638 144.157 44.5651 143.737 44.9844C143.323 45.4036 142.824 45.6133 142.24 45.6133C141.657 45.6133 141.156 45.4036 140.736 44.9844C140.322 44.5651 140.114 44.0638 140.114 43.4805C140.114 42.8926 140.322 42.389 140.736 41.9697C141.151 41.5505 141.652 41.3408 142.24 41.3408ZM142.227 42.373C141.921 42.373 141.659 42.4824 141.44 42.7012C141.226 42.9154 141.119 43.1751 141.119 43.4805C141.119 43.7812 141.229 44.0387 141.447 44.2529C141.666 44.4671 141.926 44.5742 142.227 44.5742C142.532 44.5742 142.792 44.4671 143.006 44.2529C143.225 44.0387 143.334 43.7812 143.334 43.4805C143.334 43.1706 143.227 42.9085 143.013 42.6943C142.799 42.4801 142.536 42.373 142.227 42.373ZM158.011 51V50.2002C157.746 50.4873 157.443 50.7106 157.102 50.8701C156.764 51.0296 156.427 51.1094 156.09 51.1094C155.693 51.1094 155.326 51.0114 154.989 50.8154C154.657 50.6149 154.404 50.346 154.23 50.0088C154.062 49.667 153.978 49.1019 153.978 48.3135V44.7109H155.222V48.2998C155.222 48.9606 155.315 49.4232 155.502 49.6875C155.693 49.9473 156.026 50.0771 156.5 50.0771C157.092 50.0771 157.596 49.7878 158.011 49.209V44.7109H159.255V51H158.011ZM160.923 54.2061V44.7109H163.104C164.22 44.7109 165.088 44.9889 165.708 45.5449C166.332 46.1009 166.645 46.8779 166.645 47.876C166.645 48.8193 166.351 49.5941 165.763 50.2002C165.179 50.8063 164.434 51.1094 163.527 51.1094C163.126 51.1094 162.682 51.0205 162.194 50.8428V54.2061H160.923ZM163.076 45.873H162.194V49.7422C162.577 49.9382 162.978 50.0361 163.397 50.0361C163.981 50.0361 164.457 49.8333 164.826 49.4277C165.2 49.0221 165.387 48.5003 165.387 47.8623C165.387 47.4521 165.298 47.0898 165.12 46.7754C164.947 46.4609 164.708 46.2331 164.402 46.0918C164.102 45.946 163.66 45.873 163.076 45.873ZM168.032 41.4502H169.276V51H168.032V41.4502ZM174.089 44.6973C175.046 44.6973 175.841 45.0072 176.475 45.627C177.108 46.2422 177.425 47.0169 177.425 47.9512C177.425 48.8581 177.104 49.6123 176.461 50.2139C175.818 50.8109 175.009 51.1094 174.034 51.1094C173.091 51.1094 172.302 50.8063 171.669 50.2002C171.035 49.5895 170.719 48.8285 170.719 47.917C170.719 46.9964 171.038 46.2308 171.676 45.6201C172.318 45.0049 173.123 44.6973 174.089 44.6973ZM174.021 45.8184C173.424 45.8184 172.934 46.0143 172.551 46.4062C172.168 46.7982 171.977 47.2972 171.977 47.9033C171.977 48.5049 172.173 48.9971 172.564 49.3799C172.956 49.7581 173.46 49.9473 174.075 49.9473C174.686 49.9473 175.185 49.7559 175.572 49.373C175.964 48.9857 176.16 48.4912 176.16 47.8896C176.16 47.2926 175.957 46.7982 175.552 46.4062C175.146 46.0143 174.636 45.8184 174.021 45.8184ZM182.757 47.2197V49.8926C182.757 50.1068 182.83 50.2139 182.976 50.2139C183.126 50.2139 183.361 50.1022 183.68 49.8789V50.6377C183.397 50.82 183.169 50.943 182.996 51.0068C182.827 51.0752 182.65 51.1094 182.463 51.1094C181.93 51.1094 181.615 50.8997 181.52 50.4805C180.991 50.8906 180.428 51.0957 179.831 51.0957C179.394 51.0957 179.029 50.9521 178.737 50.665C178.446 50.3734 178.3 50.0088 178.3 49.5713C178.3 49.1748 178.441 48.8216 178.724 48.5117C179.011 48.1973 179.416 47.9489 179.94 47.7666L181.533 47.2197V46.8848C181.533 46.1283 181.155 45.75 180.398 45.75C179.719 45.75 179.059 46.1009 178.416 46.8027V45.4424C178.899 44.8727 179.594 44.5879 180.501 44.5879C181.18 44.5879 181.725 44.7656 182.135 45.1211C182.271 45.235 182.395 45.3877 182.504 45.5791C182.613 45.766 182.682 45.9551 182.709 46.1465C182.741 46.3333 182.757 46.6911 182.757 47.2197ZM181.533 49.7559V47.8896L180.699 48.2109C180.275 48.3796 179.975 48.5505 179.797 48.7236C179.624 48.8923 179.537 49.1042 179.537 49.3594C179.537 49.6191 179.619 49.8311 179.783 49.9951C179.952 50.1592 180.168 50.2412 180.433 50.2412C180.829 50.2412 181.196 50.0794 181.533 49.7559ZM188.978 41.4502H190.229V51H187.569C186.64 51 185.897 50.7061 185.341 50.1182C184.789 49.5303 184.514 48.7419 184.514 47.7529C184.514 46.8278 184.803 46.0667 185.382 45.4697C185.965 44.8727 186.708 44.5742 187.61 44.5742C188.03 44.5742 188.485 44.6631 188.978 44.8408V41.4502ZM188.978 49.9336V45.9482C188.59 45.7523 188.198 45.6543 187.802 45.6543C187.182 45.6543 186.688 45.8571 186.318 46.2627C185.954 46.6683 185.771 47.2152 185.771 47.9033C185.771 48.5505 185.931 49.0495 186.25 49.4004C186.441 49.61 186.644 49.7513 186.858 49.8242C187.073 49.8971 187.458 49.9336 188.014 49.9336H188.978ZM197.276 47.9648H192.854C192.885 48.5664 193.086 49.0449 193.455 49.4004C193.829 49.7559 194.31 49.9336 194.897 49.9336C195.718 49.9336 196.474 49.6784 197.167 49.168V50.3848C196.784 50.64 196.404 50.8223 196.025 50.9316C195.652 51.041 195.212 51.0957 194.706 51.0957C194.013 51.0957 193.453 50.9521 193.024 50.665C192.596 50.3779 192.252 49.9928 191.992 49.5098C191.737 49.0221 191.609 48.4593 191.609 47.8213C191.609 46.8643 191.881 46.0872 192.423 45.4902C192.965 44.8887 193.669 44.5879 194.535 44.5879C195.369 44.5879 196.035 44.8796 196.531 45.4629C197.028 46.0462 197.276 46.8278 197.276 47.8076V47.9648ZM192.881 47.2197H196.046C196.014 46.723 195.866 46.3402 195.602 46.0713C195.337 45.8024 194.982 45.668 194.535 45.668C194.089 45.668 193.722 45.8024 193.435 46.0713C193.152 46.3402 192.967 46.723 192.881 47.2197ZM202.827 41.4502H204.078V51H201.419C200.489 51 199.746 50.7061 199.19 50.1182C198.639 49.5303 198.363 48.7419 198.363 47.7529C198.363 46.8278 198.653 46.0667 199.231 45.4697C199.815 44.8727 200.558 44.5742 201.46 44.5742C201.879 44.5742 202.335 44.6631 202.827 44.8408V41.4502ZM202.827 49.9336V45.9482C202.44 45.7523 202.048 45.6543 201.651 45.6543C201.032 45.6543 200.537 45.8571 200.168 46.2627C199.803 46.6683 199.621 47.2152 199.621 47.9033C199.621 48.5505 199.781 49.0495 200.1 49.4004C200.291 49.61 200.494 49.7513 200.708 49.8242C200.922 49.8971 201.307 49.9336 201.863 49.9336H202.827Z" fill="#667085"/>
</g>
<rect x="0.5" y="0.5" width="455" height="71" rx="7.5" stroke="#007A61"/>
<defs>
<clipPath id="clip0_2765_111779">
<rect width="456" height="72" rx="8" fill="white"/>
</clipPath>
</defs>
</svg>
