<svg width="176" height="127" viewBox="0 0 176 127" fill="none" xmlns="http://www.w3.org/2000/svg">
<path d="M135.179 80.9124C157.522 80.9124 175.635 62.7995 175.635 40.4562C175.635 18.1129 157.522 0 135.179 0C112.835 0 94.7227 18.1129 94.7227 40.4562C94.7227 62.7995 112.835 80.9124 135.179 80.9124Z" fill="#455A64"/>
<path d="M27.6401 126.45C42.9053 126.45 55.2803 114.075 55.2803 98.81C55.2803 83.5448 42.9053 71.1699 27.6401 71.1699C12.3749 71.1699 0 83.5448 0 98.81C0 114.075 12.3749 126.45 27.6401 126.45Z" fill="#EBEBEB"/>
<path d="M110.509 32.9126V61.8972H102.303V32.9126C102.303 21.8775 93.9215 12.9028 83.6198 12.9028C73.318 12.9028 64.937 21.8775 64.937 32.9126V61.8972H56.7305V32.9126C56.7305 17.1107 68.7957 4.25977 83.6198 4.25977C98.4438 4.25977 110.509 17.1107 110.509 32.9126Z" fill="#C7C7C7"/>
<path d="M121.016 45.4141H46.2148V113.266H121.016V45.4141Z" fill="#FFC727"/>
<path d="M86.7811 81.8186L89.924 96.6776H76.619L79.7619 81.8186C78.5296 81.0586 77.5788 79.9172 77.054 78.5677C76.5291 77.2183 76.4589 75.7345 76.8539 74.3415C77.2489 72.9485 78.0876 71.7224 79.2427 70.8494C80.3977 69.9763 81.8061 69.5039 83.254 69.5039C84.702 69.5039 86.1103 69.9763 87.2654 70.8494C88.4205 71.7224 89.2592 72.9485 89.6542 74.3415C90.0492 75.7345 89.979 77.2183 89.4541 78.5677C88.9293 79.9172 87.9785 81.0586 86.7462 81.8186H86.7811Z" fill="#263238"/>
</svg>
