<svg width="17" height="17" viewBox="0 0 17 17" fill="none" xmlns="http://www.w3.org/2000/svg">
<path d="M6.83626 7.00065C7.57264 7.00065 8.1696 6.4037 8.1696 5.66732C8.1696 4.93094 7.57264 4.33398 6.83626 4.33398C6.09988 4.33398 5.50293 4.93094 5.50293 5.66732C5.50293 6.4037 6.09988 7.00065 6.83626 7.00065Z" stroke="#007A61" stroke-linecap="round" stroke-linejoin="round"/>
<path d="M9.50228 1.66797H6.83561C3.50228 1.66797 2.16895 3.0013 2.16895 6.33464V10.3346C2.16895 13.668 3.50228 15.0013 6.83561 15.0013H10.8356C14.1689 15.0013 15.5023 13.668 15.5023 10.3346V7.0013" stroke="#007A61" stroke-linecap="round" stroke-linejoin="round"/>
<path d="M12.8359 5.66797V1.66797L14.1693 3.0013" stroke="#007A61" stroke-linecap="round" stroke-linejoin="round"/>
<path d="M12.8363 1.66797L11.5029 3.0013" stroke="#007A61" stroke-linecap="round" stroke-linejoin="round"/>
<path d="M2.61621 12.967L5.90288 10.7604C6.42954 10.407 7.18954 10.447 7.66288 10.8537L7.88288 11.047C8.40288 11.4937 9.24288 11.4937 9.76288 11.047L12.5362 8.66703C13.0562 8.22036 13.8962 8.22036 14.4162 8.66703L15.5029 9.60036" stroke="#007A61" stroke-linecap="round" stroke-linejoin="round"/>
</svg>
