<svg width="18" height="18" viewBox="0 0 18 18" fill="none" xmlns="http://www.w3.org/2000/svg">
<path fill-rule="evenodd" clip-rule="evenodd" d="M5.38881 17.3327H12.611C15.4362 17.3327 17.3337 15.3509 17.3337 12.4021V5.59662C17.3337 2.64778 15.4362 0.666016 12.6118 0.666016H5.38881C2.56441 0.666016 0.666992 2.64778 0.666992 5.59662V12.4021C0.666992 15.3509 2.56441 17.3327 5.38881 17.3327ZM6.08271 8.16602C4.93384 8.16602 4.00033 7.23124 4.00033 6.08268C4.00033 4.93412 4.93384 3.99935 6.08271 3.99935C7.23074 3.99935 8.16509 4.93412 8.16509 6.08268C8.16509 7.23124 7.23074 8.16602 6.08271 8.16602ZM15.5177 11.4443C15.7967 12.1598 15.6517 13.0198 15.3534 13.7285C14.9998 14.5712 14.3227 15.2094 13.4696 15.488C13.0909 15.6118 12.6937 15.666 12.2973 15.666H5.2742C4.57532 15.666 3.95689 15.4983 3.44991 15.1861C3.13232 14.9901 3.07617 14.5377 3.31165 14.2444C3.7055 13.7543 4.09432 13.2623 4.48649 12.7661C5.23397 11.8167 5.7376 11.5415 6.29737 11.7831C6.52446 11.8829 6.75239 12.0325 6.98703 12.1908C7.61216 12.6156 8.48115 13.1996 9.62583 12.5657C10.4092 12.127 10.8635 11.3745 11.2591 10.7191L11.2658 10.7082C11.2937 10.6623 11.3215 10.6164 11.3491 10.5707L11.3493 10.5704L11.3493 10.5703C11.4823 10.3503 11.6134 10.1333 11.7618 9.9333C11.9479 9.68304 12.6375 8.90045 13.5308 9.45773C14.0998 9.8086 14.5783 10.2833 15.0903 10.7916C15.2855 10.9859 15.4247 11.207 15.5177 11.4443Z" fill="#007A61"/>
</svg>
