<svg width="16" height="16" viewBox="0 0 16 16" fill="none" xmlns="http://www.w3.org/2000/svg">
<path fill-rule="evenodd" clip-rule="evenodd" d="M6 1.33398C4.15905 1.33398 2.66667 2.82637 2.66667 4.66732C2.66667 6.50827 4.15905 8.00065 6 8.00065C7.84095 8.00065 9.33333 6.50827 9.33333 4.66732C9.33333 2.82637 7.84095 1.33398 6 1.33398ZM4 4.66732C4 3.56275 4.89543 2.66732 6 2.66732C7.10457 2.66732 8 3.56275 8 4.66732C8 5.77189 7.10457 6.66732 6 6.66732C4.89543 6.66732 4 5.77189 4 4.66732Z" fill="#717D96"/>
<path d="M3.33333 9.33398C2.44928 9.33398 1.60143 9.68517 0.976311 10.3103C0.35119 10.9354 0 11.7833 0 12.6673V14.0007C0 14.3688 0.298477 14.6673 0.666667 14.6673C1.03486 14.6673 1.33333 14.3688 1.33333 14.0007V12.6673C1.33333 12.1369 1.54405 11.6282 1.91912 11.2531C2.29419 10.878 2.8029 10.6673 3.33333 10.6673H8.66667C9.1971 10.6673 9.70581 10.878 10.0809 11.2531C10.456 11.6282 10.6667 12.1369 10.6667 12.6673V14.0007C10.6667 14.3688 10.9651 14.6673 11.3333 14.6673C11.7015 14.6673 12 14.3688 12 14.0007V12.6673C12 11.7833 11.6488 10.9354 11.0237 10.3103C10.3986 9.68517 9.55072 9.33398 8.66667 9.33398H3.33333Z" fill="#717D96"/>
<path d="M12.6878 9.92065C12.7799 9.56416 13.1435 9.34978 13.5 9.44182C14.2151 9.62646 14.8486 10.0434 15.3011 10.6271C15.7536 11.2108 15.9994 11.9283 16 12.6668V14.0007C16 14.3688 15.7015 14.6673 15.3333 14.6673C14.9651 14.6673 14.6667 14.3688 14.6667 14.0007V12.6678C14.6663 12.2248 14.5188 11.7942 14.2474 11.444C13.9759 11.0937 13.5957 10.8436 13.1667 10.7328C12.8102 10.6408 12.5958 10.2772 12.6878 9.92065Z" fill="#717D96"/>
<path d="M10.832 1.44149C10.4753 1.35016 10.1122 1.56528 10.0208 1.92196C9.92951 2.27865 10.1446 2.64183 10.5013 2.73315C10.9315 2.8433 11.3128 3.0935 11.5851 3.44431C11.8574 3.79511 12.0052 4.22657 12.0052 4.67065C12.0052 5.11474 11.8574 5.54619 11.5851 5.897C11.3128 6.2478 10.9315 6.498 10.5013 6.60815C10.1446 6.69948 9.92951 7.06266 10.0208 7.41935C10.1122 7.77603 10.4753 7.99115 10.832 7.89982C11.549 7.71624 12.1846 7.29924 12.6384 6.71456C13.0922 6.12989 13.3386 5.4108 13.3386 4.67065C13.3386 3.93051 13.0922 3.21142 12.6384 2.62675C12.1846 2.04207 11.549 1.62507 10.832 1.44149Z" fill="#717D96"/>
</svg>
