<svg width="41" height="41" viewBox="0 0 41 41" fill="none" xmlns="http://www.w3.org/2000/svg">
<path d="M33.8327 18.8802C33.8327 26.244 27.8631 32.2135 20.4993 32.2135C13.1356 32.2135 7.16602 26.244 7.16602 18.8802C7.16602 11.5164 13.1356 5.54688 20.4993 5.54688C27.8631 5.54688 33.8327 11.5164 33.8327 18.8802Z" fill="#DCA16A"/>
<path fill-rule="evenodd" clip-rule="evenodd" d="M34.8197 18.8796C34.8197 26.7888 28.408 33.2006 20.4987 33.2006C12.5895 33.2006 6.17773 26.7888 6.17773 18.8796C6.17773 10.9703 12.5895 4.55859 20.4987 4.55859C28.408 4.55859 34.8197 10.9703 34.8197 18.8796ZM20.4987 32.2129C27.8625 32.2129 33.8321 26.2434 33.8321 18.8796C33.8321 11.5158 27.8625 5.54625 20.4987 5.54625C13.1349 5.54625 7.16539 11.5158 7.16539 18.8796C7.16539 26.2434 13.1349 32.2129 20.4987 32.2129Z" fill="#C38144"/>
<path fill-rule="evenodd" clip-rule="evenodd" d="M8.15464 19.375C7.8819 19.375 7.66081 19.1539 7.66081 18.8812C7.66081 11.7901 13.4093 6.04167 20.5003 6.04167C20.773 6.04167 20.9941 6.26276 20.9941 6.53549C20.9941 6.80823 20.773 7.02932 20.5003 7.02932C13.9547 7.02932 8.64846 12.3356 8.64846 18.8812C8.64846 19.1539 8.42737 19.375 8.15464 19.375Z" fill="#F0B57F"/>
<path fill-rule="evenodd" clip-rule="evenodd" d="M32.8454 18.3867C33.1181 18.3867 33.3392 18.6078 33.3392 18.8805C33.3392 25.9716 27.5907 31.7201 20.4997 31.7201C20.227 31.7201 20.0059 31.499 20.0059 31.2262C20.0059 30.9535 20.227 30.7324 20.4997 30.7324C27.0453 30.7324 32.3515 25.4261 32.3515 18.8805C32.3515 18.6078 32.5726 18.3867 32.8454 18.3867Z" fill="#CF945D"/>
<path d="M30.3761 18.8804C30.3761 24.3351 25.9543 28.757 20.4996 28.757C15.0449 28.757 10.623 24.3351 10.623 18.8804C10.623 13.4258 15.0449 9.00391 20.4996 9.00391C25.9543 9.00391 30.3761 13.4258 30.3761 18.8804Z" fill="#F7BA82"/>
<path fill-rule="evenodd" clip-rule="evenodd" d="M31.3632 18.8798C31.3632 24.88 26.4991 29.744 20.499 29.744C14.4988 29.744 9.63477 24.88 9.63477 18.8798C9.63477 12.8797 14.4988 8.01562 20.499 8.01562C26.4991 8.01562 31.3632 12.8797 31.3632 18.8798ZM20.499 28.7564C25.9536 28.7564 30.3755 24.3345 30.3755 18.8798C30.3755 13.4252 25.9536 9.00328 20.499 9.00328C15.0443 9.00328 10.6224 13.4252 10.6224 18.8798C10.6224 24.3345 15.0443 28.7564 20.499 28.7564Z" fill="#C38144"/>
<path fill-rule="evenodd" clip-rule="evenodd" d="M20.5001 27.2741C25.1366 27.2741 28.8952 23.5155 28.8952 18.879C28.8952 18.6063 29.1163 18.3852 29.389 18.3852C29.6617 18.3852 29.8828 18.6063 29.8828 18.879C29.8828 24.0609 25.682 28.2617 20.5001 28.2617C20.2274 28.2617 20.0063 28.0406 20.0063 27.7679C20.0063 27.4952 20.2274 27.2741 20.5001 27.2741Z" fill="#E6A66C"/>
<path fill-rule="evenodd" clip-rule="evenodd" d="M20.4999 10.4837C15.8634 10.4837 12.1048 14.2423 12.1048 18.8788C12.1048 19.1515 11.8837 19.3726 11.611 19.3726C11.3383 19.3726 11.1172 19.1515 11.1172 18.8788C11.1172 13.6969 15.318 9.49609 20.4999 9.49609C20.7726 9.49609 20.9937 9.71719 20.9937 9.98992C20.9937 10.2627 20.7726 10.4837 20.4999 10.4837Z" fill="#FFD5AE"/>
<path d="M5.40534 32.0259L4.13335 29.4819C3.99483 29.2049 4.19628 28.8789 4.50603 28.8789L10.0818 28.8789C10.312 28.8789 10.4985 29.0655 10.4985 29.2956L10.4985 35.1289C10.4985 35.359 10.312 35.5456 10.0818 35.5456L4.50603 35.5456C4.19628 35.5456 3.99483 35.2196 4.13335 34.9426L5.40534 32.3986C5.464 32.2813 5.464 32.1432 5.40534 32.0259Z" fill="#C52229"/>
<path d="M35.5917 32.0259L36.8637 29.4819C37.0022 29.2049 36.8007 28.8789 36.491 28.8789L30.9152 28.8789C30.6851 28.8789 30.4985 29.0655 30.4985 29.2956L30.4985 35.1289C30.4985 35.359 30.6851 35.5456 30.9152 35.5456L36.491 35.5456C36.8007 35.5456 37.0022 35.2196 36.8637 34.9426L35.5917 32.3986C35.533 32.2813 35.533 32.1432 35.5917 32.0259Z" fill="#C52229"/>
<path fill-rule="evenodd" clip-rule="evenodd" d="M4.5664 32.2135L3.38757 29.8559C2.97201 29.0248 3.57637 28.0469 4.50561 28.0469L10.0814 28.0469C10.7718 28.0469 11.3314 28.6065 11.3314 29.2969L11.3314 35.1302C11.3314 35.8206 10.7718 36.3802 10.0814 36.3802L4.5056 36.3802C3.57637 36.3802 2.97201 35.4023 3.38757 34.5712L4.5664 32.2135ZM4.65932 32.3994C4.65941 32.3996 4.65949 32.3997 4.65957 32.3999L5.03225 32.2135L4.65956 32.3999L4.65932 32.3994ZM36.4298 32.2135L37.6086 29.8559C38.0242 29.0248 37.4198 28.0469 36.4906 28.0469L30.9148 28.0469C30.2244 28.0469 29.6648 28.6065 29.6648 29.2969L29.6648 35.1302C29.6648 35.8206 30.2244 36.3802 30.9148 36.3802L36.4906 36.3802C37.4198 36.3802 38.0242 35.4023 37.6086 34.5712L36.4298 32.2135ZM36.8633 29.4832L35.5913 32.0272C35.5326 32.1445 35.5326 32.2826 35.5913 32.3999L36.8633 34.9439C37.0018 35.2209 36.8003 35.5469 36.4906 35.5469L30.9148 35.5469C30.6846 35.5469 30.4981 35.3603 30.4981 35.1302L30.4981 29.2969C30.4981 29.0668 30.6846 28.8802 30.9148 28.8802L36.4906 28.8802C36.8003 28.8802 37.0018 29.2062 36.8633 29.4832ZM4.13293 29.4832L5.40492 32.0272C5.46357 32.1445 5.46357 32.2826 5.40492 32.3999L4.13293 34.9439C3.99441 35.2209 4.19586 35.5469 4.5056 35.5469L10.0814 35.5469C10.3115 35.5469 10.4981 35.3603 10.4981 35.1302L10.4981 29.2969C10.4981 29.0668 10.3115 28.8802 10.0814 28.8802L4.50561 28.8802C4.19586 28.8802 3.99441 29.2062 4.13293 29.4832Z" fill="#9B0F15"/>
<path fill-rule="evenodd" clip-rule="evenodd" d="M4.72823 29.257C4.80453 29.1359 4.93762 29.0625 5.08073 29.0625H6.85156C7.08168 29.0625 7.26823 29.249 7.26823 29.4792C7.26823 29.7093 7.08168 29.8958 6.85156 29.8958H5.74187L6.60245 31.6952C6.70174 31.9028 6.61393 32.1516 6.40634 32.2509C6.19874 32.3502 5.94996 32.2624 5.85067 32.0548L4.70484 29.6589C4.6431 29.5298 4.65193 29.3781 4.72823 29.257Z" fill="#DF3840"/>
<path d="M32.1641 33.4648L32.1641 27.6315C32.1641 27.4014 31.9775 27.2148 31.7474 27.2148L9.2474 27.2148C9.01728 27.2148 8.83073 27.4014 8.83073 27.6315L8.83073 33.4648C8.83073 33.695 9.01728 33.8815 9.2474 33.8815L31.7474 33.8815C31.9775 33.8815 32.1641 33.695 32.1641 33.4648Z" fill="#F1333B"/>
<path fill-rule="evenodd" clip-rule="evenodd" d="M32.998 27.6289L32.998 33.4622C32.998 34.1526 32.4384 34.7122 31.748 34.7122L9.24805 34.7122C8.55769 34.7122 7.99805 34.1526 7.99805 33.4622L7.99805 27.6289C7.99805 26.9385 8.55769 26.3789 9.24805 26.3789L31.748 26.3789C32.4384 26.3789 32.998 26.9386 32.998 27.6289ZM32.1647 27.6289L32.1647 33.4622C32.1647 33.6924 31.9782 33.8789 31.748 33.8789L9.24805 33.8789C9.01793 33.8789 8.83138 33.6924 8.83138 33.4622L8.83138 27.6289C8.83138 27.3988 9.01793 27.2122 9.24805 27.2122L31.748 27.2122C31.9782 27.2122 32.1647 27.3988 32.1647 27.6289Z" fill="#9B0F15"/>
<path d="M31.0122 30.7008C30.7763 30.7008 30.585 30.5142 30.585 30.284C30.585 30.0538 30.7763 29.8672 31.0122 29.8672C31.2482 29.8672 31.4395 30.0538 31.4395 30.284C31.4395 30.5142 31.2482 30.7008 31.0122 30.7008Z" fill="#DB1B24"/>
<path d="M29.3885 30.5369C29.095 30.5369 28.8571 30.3048 28.8571 30.0184C28.8571 29.7321 29.095 29.5 29.3885 29.5C29.682 29.5 29.9199 29.7321 29.9199 30.0184C29.9199 30.3048 29.682 30.5369 29.3885 30.5369Z" fill="#DB1B24"/>
<path d="M30.1112 31.7216C29.9645 31.7216 29.8455 31.6055 29.8455 31.4623C29.8455 31.3192 29.9645 31.2031 30.1112 31.2031C30.258 31.2031 30.377 31.3192 30.377 31.4623C30.377 31.6055 30.258 31.7216 30.1112 31.7216Z" fill="#DB1B24"/>
<path d="M29.6542 28.9794C29.5075 28.9794 29.3885 28.8633 29.3885 28.7202C29.3885 28.577 29.5075 28.4609 29.6542 28.4609C29.801 28.4609 29.9199 28.577 29.9199 28.7202C29.9199 28.8633 29.801 28.9794 29.6542 28.9794Z" fill="#DB1B24"/>
<path d="M28.2577 31.4599C28.111 31.4599 27.992 31.3438 27.992 31.2006C27.992 31.0575 28.111 30.9414 28.2577 30.9414C28.4045 30.9414 28.5234 31.0575 28.5234 31.2006C28.5234 31.3438 28.4045 31.4599 28.2577 31.4599Z" fill="#DB1B24"/>
<path d="M27.9921 30.1278C27.8454 30.1278 27.7264 30.0118 27.7264 29.8686C27.7264 29.7254 27.8454 29.6094 27.9921 29.6094C28.1389 29.6094 28.2578 29.7254 28.2578 29.8686C28.2578 30.0118 28.1389 30.1278 27.9921 30.1278Z" fill="#DB1B24"/>
<path d="M26.1796 33.1356C26.0329 33.1356 25.9139 33.0196 25.9139 32.8764C25.9139 32.7332 26.0329 32.6172 26.1796 32.6172C26.3264 32.6172 26.4453 32.7332 26.4453 32.8764C26.4453 33.0196 26.3264 33.1356 26.1796 33.1356Z" fill="#DB1B24"/>
<path d="M31.4667 32.1434C31.32 32.1434 31.201 32.0274 31.201 31.8842C31.201 31.7411 31.32 31.625 31.4667 31.625C31.6135 31.625 31.7324 31.7411 31.7324 31.8842C31.7324 32.0274 31.6135 32.1434 31.4667 32.1434Z" fill="#DB1B24"/>
<path d="M28.9562 32.7109C28.7174 32.7109 28.5238 32.5221 28.5238 32.2891C28.5238 32.0561 28.7174 31.8672 28.9562 31.8672C29.1951 31.8672 29.3887 32.0561 29.3887 32.2891C29.3887 32.5221 29.1951 32.7109 28.9562 32.7109Z" fill="#DB1B24"/>
<path d="M30.8098 33.1328C30.5709 33.1328 30.3773 32.9439 30.3773 32.7109C30.3773 32.4779 30.5709 32.2891 30.8098 32.2891C31.0486 32.2891 31.2422 32.4779 31.2422 32.7109C31.2422 32.9439 31.0486 33.1328 30.8098 33.1328Z" fill="#DB1B24"/>
<path d="M27.0266 32.3047C26.7877 32.3047 26.5941 32.1158 26.5941 31.8828C26.5941 31.6498 26.7877 31.4609 27.0266 31.4609C27.2654 31.4609 27.459 31.6498 27.459 31.8828C27.459 32.1158 27.2654 32.3047 27.0266 32.3047Z" fill="#DB1B24"/>
<path d="M27.7265 33.2645C27.5797 33.2645 27.4608 33.1485 27.4608 33.0053C27.4608 32.8622 27.5797 32.7461 27.7265 32.7461C27.8732 32.7461 27.9922 32.8622 27.9922 33.0053C27.9922 33.1485 27.8732 33.2645 27.7265 33.2645Z" fill="#DB1B24"/>
<path fill-rule="evenodd" clip-rule="evenodd" d="M9.0918 27.8112C9.0918 27.5811 9.27834 27.3945 9.50846 27.3945H25.1335C25.3636 27.3945 25.5501 27.5811 25.5501 27.8112C25.5501 28.0413 25.3636 28.2279 25.1335 28.2279H9.92513V31.1445C9.92513 31.3746 9.73858 31.5612 9.50846 31.5612C9.27834 31.5612 9.0918 31.3746 9.0918 31.1445V27.8112Z" fill="#FE666D"/>
<path d="M19.4266 17.9703H20.2343C20.6189 17.9703 20.9038 17.8742 21.0891 17.6819C21.2744 17.4896 21.3671 17.2344 21.3671 16.9162C21.3671 16.6085 21.2744 16.369 21.0891 16.1977C20.9073 16.0264 20.6556 15.9407 20.3339 15.9407C20.0437 15.9407 19.8007 16.0211 19.6049 16.182C19.4091 16.3393 19.3112 16.5456 19.3112 16.8008H17.7956C17.7956 16.4022 17.9022 16.0456 18.1155 15.7309C18.3323 15.4128 18.6329 15.1645 19.0175 14.9862C19.4056 14.8079 19.8322 14.7188 20.2972 14.7188C21.1049 14.7188 21.7377 14.9128 22.1957 15.3009C22.6537 15.6855 22.8827 16.2169 22.8827 16.8952C22.8827 17.2449 22.7761 17.5665 22.5628 17.8602C22.3495 18.1539 22.0698 18.3794 21.7237 18.5367C22.1538 18.6906 22.4737 18.9213 22.6834 19.229C22.8967 19.5367 23.0034 19.9003 23.0034 20.3199C23.0034 20.9982 22.7551 21.5418 22.2586 21.9509C21.7657 22.36 21.1118 22.5645 20.2972 22.5645C19.535 22.5645 18.9109 22.3635 18.4249 21.9614C17.9424 21.5593 17.7012 21.0279 17.7012 20.3671H19.2168C19.2168 20.6538 19.3235 20.888 19.5367 21.0698C19.7535 21.2517 20.0192 21.3426 20.3339 21.3426C20.694 21.3426 20.9755 21.2482 21.1783 21.0594C21.3846 20.8671 21.4877 20.6136 21.4877 20.2989C21.4877 19.5367 21.0681 19.1556 20.229 19.1556H19.4266V17.9703Z" fill="#FFD5AE"/>
<path fill-rule="evenodd" clip-rule="evenodd" d="M18.5749 17.6964H17.7961C17.3018 17.6964 16.901 17.2957 16.901 16.8013C16.901 16.2329 17.0563 15.6996 17.3751 15.2293L17.3763 15.2275C17.6932 14.7625 18.1256 14.414 18.6416 14.1747L18.6444 14.1734C19.1598 13.9366 19.7153 13.8242 20.2977 13.8242C21.243 13.8242 22.1054 14.0521 22.7733 14.6173C23.4614 15.1958 23.7783 15.9934 23.7783 16.8957C23.7783 17.4419 23.6074 17.9463 23.2876 18.3867C23.2669 18.4152 23.2458 18.4432 23.2242 18.4708C23.2946 18.5495 23.3606 18.6333 23.4215 18.7224C23.7496 19.197 23.899 19.7426 23.899 20.3204C23.899 21.2488 23.5442 22.0518 22.8296 22.6412C22.1366 23.2157 21.2626 23.4601 20.2977 23.4601C19.3723 23.4601 18.533 23.2126 17.8549 22.6516L17.8524 22.6495C17.154 22.0675 16.8066 21.2782 16.8066 20.3676C16.8066 19.8733 17.2074 19.4725 17.7017 19.4725H18.5896C18.5524 19.3742 18.5321 19.2675 18.5321 19.1561V17.9709C18.5321 17.8751 18.5471 17.7829 18.5749 17.6964ZM20.0549 20.0512C20.0921 20.1496 20.1124 20.2562 20.1124 20.3676C20.1124 20.3751 20.1127 20.3808 20.1131 20.3849C20.1139 20.3856 20.1147 20.3864 20.1155 20.3871C20.1528 20.4176 20.2085 20.448 20.3344 20.448C20.4377 20.448 20.4992 20.4344 20.531 20.4237C20.5575 20.4148 20.5662 20.4073 20.5685 20.4052M20.0549 20.0512H20.2296C20.452 20.0512 20.5427 20.0894 20.5674 20.1027C20.568 20.1041 20.5686 20.1057 20.5693 20.1076C20.5777 20.1304 20.5932 20.1887 20.5932 20.2994C20.5932 20.3583 20.5838 20.3834 20.5818 20.3882C20.5806 20.3912 20.5797 20.3926 20.5789 20.3938C20.578 20.3951 20.575 20.3991 20.5685 20.4052M22.2592 21.9514C22.7557 21.5424 23.0039 20.9987 23.0039 20.3204C23.0039 19.9008 22.8973 19.5372 22.684 19.2296C22.6494 19.1789 22.6119 19.1303 22.5714 19.0838C22.3659 18.848 22.0835 18.6658 21.7242 18.5373C22.048 18.3901 22.3136 18.1833 22.5211 17.9169C22.5355 17.8984 22.5496 17.8797 22.5634 17.8607C22.7766 17.567 22.8833 17.2454 22.8833 16.8957C22.8833 16.2175 22.6543 15.686 22.1962 15.3014C21.7382 14.9133 21.1054 14.7193 20.2977 14.7193C19.8327 14.7193 19.4062 14.8084 19.0181 14.9868C18.6335 15.1651 18.3328 15.4133 18.116 15.7315C18.0775 15.7884 18.0424 15.8466 18.0108 15.9063C17.8677 16.1765 17.7961 16.4748 17.7961 16.8013H19.3118C19.3118 16.5461 19.4097 16.3398 19.6055 16.1825C19.8013 16.0217 20.0442 15.9412 20.3344 15.9412C20.6561 15.9412 20.9078 16.0269 21.0897 16.1982C21.275 16.3696 21.3676 16.609 21.3676 16.9167C21.3676 17.2349 21.275 17.4901 21.0897 17.6824C20.9043 17.8747 20.6194 17.9709 20.2348 17.9709H19.4271V19.1561H20.2296C21.0687 19.1561 21.4882 19.5372 21.4882 20.2994C21.4882 20.6141 21.3851 20.8676 21.1788 21.0599C20.976 21.2487 20.6946 21.3431 20.3344 21.3431C20.0198 21.3431 19.7541 21.2522 19.5373 21.0704C19.324 20.8886 19.2174 20.6543 19.2174 20.3676H17.7017C17.7017 20.6984 17.7621 20.9967 17.883 21.2627C18.0037 21.528 18.1845 21.7611 18.4254 21.9619C18.9114 22.364 19.5355 22.5651 20.2977 22.5651C21.1124 22.5651 21.7662 22.3605 22.2592 21.9514ZM20.164 17.0758C20.1865 17.0057 20.2007 16.9317 20.2052 16.8552C20.2289 16.8455 20.2681 16.8363 20.3344 16.8363C20.4058 16.8363 20.4477 16.8446 20.4681 16.8504C20.4703 16.8644 20.4725 16.886 20.4725 16.9167C20.4725 16.9892 20.462 17.0269 20.4568 17.0414C20.4555 17.0448 20.4544 17.0475 20.4533 17.0498C20.4525 17.0501 20.4517 17.0504 20.4508 17.0507C20.4221 17.0603 20.3556 17.0758 20.2348 17.0758H20.164Z" fill="#C28044"/>
</svg>
