<svg width="41" height="40" viewBox="0 0 41 40" fill="none" xmlns="http://www.w3.org/2000/svg">
<path d="M33.8066 18.3789C33.8066 25.7269 27.8499 31.6836 20.502 31.6836C13.154 31.6836 7.19727 25.7269 7.19727 18.3789C7.19727 11.0309 13.154 5.07422 20.502 5.07422C27.8499 5.07422 33.8066 11.0309 33.8066 18.3789Z" fill="#FFBB0D"/>
<path fill-rule="evenodd" clip-rule="evenodd" d="M34.7914 18.3801C34.7914 26.2723 28.3934 32.6703 20.5012 32.6703C12.6089 32.6703 6.21094 26.2723 6.21094 18.3801C6.21094 10.4878 12.6089 4.08984 20.5012 4.08984C28.3934 4.08984 34.7914 10.4878 34.7914 18.3801ZM20.5012 31.6847C27.8491 31.6847 33.8058 25.728 33.8058 18.3801C33.8058 11.0321 27.8491 5.07538 20.5012 5.07538C13.1532 5.07538 7.19647 11.0321 7.19647 18.3801C7.19647 25.728 13.1532 31.6847 20.5012 31.6847Z" fill="#E89B05"/>
<path fill-rule="evenodd" clip-rule="evenodd" d="M8.18222 18.8711C7.91007 18.8711 7.68945 18.6505 7.68945 18.3783C7.68945 11.3025 13.4255 5.56641 20.5014 5.56641C20.7735 5.56641 20.9941 5.78703 20.9941 6.05917C20.9941 6.33132 20.7735 6.55194 20.5014 6.55194C13.9698 6.55194 8.67499 11.8468 8.67499 18.3783C8.67499 18.6505 8.45437 18.8711 8.18222 18.8711Z" fill="#E8AA0A"/>
<path fill-rule="evenodd" clip-rule="evenodd" d="M32.8197 17.8867C33.0919 17.8867 33.3125 18.1073 33.3125 18.3795C33.3125 25.4553 27.5764 31.1914 20.5006 31.1914C20.2284 31.1914 20.0078 30.9708 20.0078 30.6986C20.0078 30.4265 20.2284 30.2059 20.5006 30.2059C27.0321 30.2059 32.327 24.911 32.327 18.3795C32.327 18.1073 32.5476 17.8867 32.8197 17.8867Z" fill="#E8AA0A"/>
<path d="M30.3571 18.3788C30.3571 23.8217 25.9448 28.2341 20.5018 28.2341C15.0589 28.2341 10.6465 23.8217 10.6465 18.3788C10.6465 12.9358 15.0589 8.52344 20.5018 8.52344C25.9448 8.52344 30.3571 12.9358 30.3571 18.3788Z" fill="#FFDD28"/>
<path fill-rule="evenodd" clip-rule="evenodd" d="M31.3419 18.3799C31.3419 24.3672 26.4883 29.2208 20.501 29.2208C14.5138 29.2208 9.66016 24.3672 9.66016 18.3799C9.66016 12.3927 14.5138 7.53906 20.501 7.53906C26.4883 7.53906 31.3419 12.3927 31.3419 18.3799ZM20.501 28.2352C25.944 28.2352 30.3563 23.8229 30.3563 18.3799C30.3563 12.937 25.944 8.52459 20.501 8.52459C15.0581 8.52459 10.6457 12.937 10.6457 18.3799C10.6457 23.8229 15.0581 28.2352 20.501 28.2352Z" fill="#E89B05"/>
<path fill-rule="evenodd" clip-rule="evenodd" d="M20.5007 26.7567C25.1272 26.7567 28.8777 23.0061 28.8777 18.3796C28.8777 18.1075 29.0984 17.8869 29.3705 17.8869C29.6427 17.8869 29.8633 18.1075 29.8633 18.3796C29.8633 23.5504 25.6715 27.7422 20.5007 27.7422C20.2286 27.7422 20.008 27.5216 20.008 27.2494C20.008 26.9773 20.2286 26.7567 20.5007 26.7567Z" fill="#ECC704"/>
<path fill-rule="evenodd" clip-rule="evenodd" d="M20.5012 10.0012C15.8747 10.0012 12.1242 13.7517 12.1242 18.3782C12.1242 18.6503 11.9036 18.8709 11.6314 18.8709C11.3593 18.8709 11.1387 18.6503 11.1387 18.3782C11.1387 13.2074 15.3304 9.01562 20.5012 9.01562C20.7734 9.01562 20.994 9.23624 20.994 9.50839C20.994 9.78054 20.7734 10.0012 20.5012 10.0012Z" fill="#FFEF9C"/>
<path d="M5.43982 31.4996L4.17057 28.9611C4.03234 28.6846 4.23336 28.3594 4.54244 28.3594L10.1063 28.3594C10.3359 28.3594 10.5221 28.5455 10.5221 28.7751L10.5221 34.5959C10.5221 34.8256 10.3359 35.0117 10.1063 35.0117L4.54244 35.0117C4.23336 35.0117 4.03234 34.6865 4.17057 34.41L5.43982 31.8715C5.49835 31.7544 5.49835 31.6167 5.43982 31.4996Z" fill="#C52229"/>
<path d="M35.5613 31.4996L36.8306 28.9611C36.9688 28.6846 36.7678 28.3594 36.4587 28.3594L30.8949 28.3594C30.6652 28.3594 30.4791 28.5455 30.4791 28.7751L30.4791 34.5959C30.4791 34.8256 30.6652 35.0117 30.8949 35.0117L36.4587 35.0117C36.7678 35.0117 36.9688 34.6865 36.8306 34.41L35.5613 31.8715C35.5028 31.7544 35.5028 31.6167 35.5613 31.4996Z" fill="#C52229"/>
<path fill-rule="evenodd" clip-rule="evenodd" d="M4.60252 31.6851L3.42622 29.3325C3.01156 28.5031 3.61462 27.5273 4.54186 27.5273L10.1057 27.5273C10.7946 27.5273 11.353 28.0858 11.353 28.7747L11.353 34.5955C11.353 35.2843 10.7946 35.8428 10.1057 35.8428L4.54186 35.8428C3.61462 35.8428 3.01156 34.867 3.42622 34.0376L4.60252 31.6851ZM4.69525 31.8705C4.69533 31.8707 4.69541 31.8708 4.69549 31.871L5.06737 31.6851L4.69548 31.871L4.69525 31.8705ZM36.3974 31.6851L37.5737 29.3325C37.9884 28.5031 37.3853 27.5273 36.4581 27.5273L30.8943 27.5273C30.2054 27.5273 29.647 28.0858 29.647 28.7747L29.647 34.5955C29.647 35.2843 30.2054 35.8428 30.8943 35.8428L36.4581 35.8428C37.3853 35.8428 37.9884 34.867 37.5737 34.0376L36.3974 31.6851ZM36.83 28.9606L35.5607 31.4991C35.5022 31.6162 35.5022 31.7539 35.5607 31.871L36.83 34.4095C36.9682 34.686 36.7672 35.0112 36.4581 35.0112L30.8943 35.0112C30.6646 35.0112 30.4785 34.8251 30.4785 34.5955L30.4785 28.7747C30.4785 28.545 30.6646 28.3589 30.8943 28.3589L36.4581 28.3589C36.7672 28.3589 36.9682 28.6841 36.83 28.9606ZM4.16998 28.9606L5.43924 31.4991C5.49777 31.6162 5.49777 31.7539 5.43924 31.871L4.16998 34.4095C4.03176 34.686 4.23278 35.0112 4.54186 35.0112L10.1057 35.0112C10.3353 35.0112 10.5215 34.8251 10.5215 34.5955L10.5215 28.7747C10.5215 28.545 10.3353 28.3589 10.1057 28.3589L4.54186 28.3589C4.23278 28.3589 4.03176 28.6841 4.16998 28.9606Z" fill="#9B0F15"/>
<path fill-rule="evenodd" clip-rule="evenodd" d="M4.7652 28.7332C4.84134 28.6123 4.97414 28.5391 5.11694 28.5391H6.88397C7.1136 28.5391 7.29974 28.7252 7.29974 28.9548C7.29974 29.1845 7.1136 29.3706 6.88397 29.3706H5.77667L6.6354 31.1661C6.73447 31.3733 6.64685 31.6215 6.4397 31.7206C6.23255 31.8197 5.98431 31.7321 5.88523 31.5249L4.74186 29.1342C4.68025 29.0054 4.68906 28.854 4.7652 28.7332Z" fill="#DF3840"/>
<path d="M32.1406 32.9319L32.1406 27.1111C32.1406 26.8815 31.9545 26.6953 31.7249 26.6953L9.2732 26.6953C9.04357 26.6953 8.85742 26.8815 8.85742 27.1111L8.85742 32.9319C8.85742 33.1615 9.04357 33.3477 9.27319 33.3477L31.7249 33.3477C31.9545 33.3477 32.1406 33.1615 32.1406 32.9319Z" fill="#F1333B"/>
<path fill-rule="evenodd" clip-rule="evenodd" d="M32.9727 27.1106L32.9727 32.9314C32.9727 33.6203 32.4142 34.1787 31.7253 34.1787L9.27368 34.1787C8.58481 34.1787 8.02637 33.6203 8.02637 32.9314L8.02637 27.1106C8.02637 26.4217 8.58481 25.8633 9.27368 25.8633L31.7253 25.8633C32.4142 25.8633 32.9727 26.4217 32.9727 27.1106ZM32.1411 27.1106L32.1411 32.9314C32.1411 33.161 31.955 33.3472 31.7253 33.3472L9.27368 33.3472C9.04406 33.3472 8.85791 33.161 8.85791 32.9314L8.85791 27.1106C8.85791 26.881 9.04406 26.6948 9.27368 26.6948L31.7253 26.6948C31.955 26.6948 32.1411 26.881 32.1411 27.1106Z" fill="#9B0F15"/>
<path d="M30.9917 30.1795C30.7562 30.1795 30.5654 29.9932 30.5654 29.7636C30.5654 29.5339 30.7562 29.3477 30.9917 29.3477C31.2271 29.3477 31.418 29.5339 31.418 29.7636C31.418 29.9932 31.2271 30.1795 30.9917 30.1795Z" fill="#DB1B24"/>
<path d="M29.3701 30.0112C29.0773 30.0112 28.8399 29.7796 28.8399 29.4939C28.8399 29.2082 29.0773 28.9766 29.3701 28.9766C29.663 28.9766 29.9004 29.2082 29.9004 29.4939C29.9004 29.7796 29.663 30.0112 29.3701 30.0112Z" fill="#DB1B24"/>
<path d="M30.0923 31.1931C29.9459 31.1931 29.8272 31.0773 29.8272 30.9344C29.8272 30.7916 29.9459 30.6758 30.0923 30.6758C30.2387 30.6758 30.3574 30.7916 30.3574 30.9344C30.3574 31.0773 30.2387 31.1931 30.0923 31.1931Z" fill="#DB1B24"/>
<path d="M29.6353 28.4587C29.4888 28.4587 29.3701 28.3429 29.3701 28.2001C29.3701 28.0572 29.4888 27.9414 29.6353 27.9414C29.7817 27.9414 29.9004 28.0572 29.9004 28.2001C29.9004 28.3429 29.7817 28.4587 29.6353 28.4587Z" fill="#DB1B24"/>
<path d="M28.2407 30.9353C28.0943 30.9353 27.9756 30.8195 27.9756 30.6766C27.9756 30.5338 28.0943 30.418 28.2407 30.418C28.3872 30.418 28.5059 30.5338 28.5059 30.6766C28.5059 30.8195 28.3872 30.9353 28.2407 30.9353Z" fill="#DB1B24"/>
<path d="M27.9771 29.6072C27.8306 29.6072 27.7119 29.4914 27.7119 29.3485C27.7119 29.2057 27.8306 29.0898 27.9771 29.0898C28.1235 29.0898 28.2422 29.2057 28.2422 29.3485C28.2422 29.4914 28.1235 29.6072 27.9771 29.6072Z" fill="#DB1B24"/>
<path d="M26.1685 32.6072C26.022 32.6072 25.9033 32.4914 25.9033 32.3485C25.9033 32.2057 26.022 32.0898 26.1685 32.0898C26.3149 32.0898 26.4336 32.2057 26.4336 32.3485C26.4336 32.4914 26.3149 32.6072 26.1685 32.6072Z" fill="#DB1B24"/>
<path d="M31.4439 31.6189C31.2974 31.6189 31.1787 31.5031 31.1787 31.3602C31.1787 31.2174 31.2974 31.1016 31.4439 31.1016C31.5903 31.1016 31.709 31.2174 31.709 31.3602C31.709 31.5031 31.5903 31.6189 31.4439 31.6189Z" fill="#DB1B24"/>
<path d="M28.9376 32.1857C28.6993 32.1857 28.5062 31.9972 28.5062 31.7647C28.5062 31.5322 28.6993 31.3437 28.9376 31.3437C29.176 31.3437 29.3691 31.5322 29.3691 31.7647C29.3691 31.9972 29.176 32.1857 28.9376 32.1857Z" fill="#DB1B24"/>
<path d="M30.7892 32.6076C30.5509 32.6076 30.3577 32.4191 30.3577 32.1866C30.3577 31.9541 30.5509 31.7656 30.7892 31.7656C31.0275 31.7656 31.2207 31.9541 31.2207 32.1866C31.2207 32.4191 31.0275 32.6076 30.7892 32.6076Z" fill="#DB1B24"/>
<path d="M27.0138 31.7794C26.7755 31.7794 26.5823 31.591 26.5823 31.3585C26.5823 31.126 26.7755 30.9375 27.0138 30.9375C27.2521 30.9375 27.4453 31.126 27.4453 31.3585C27.4453 31.591 27.2521 31.7794 27.0138 31.7794Z" fill="#DB1B24"/>
<path d="M27.7114 32.7322C27.565 32.7322 27.4463 32.6164 27.4463 32.4735C27.4463 32.3307 27.565 32.2148 27.7114 32.2148C27.8579 32.2148 27.9766 32.3307 27.9766 32.4735C27.9766 32.6164 27.8579 32.7322 27.7114 32.7322Z" fill="#DB1B24"/>
<path fill-rule="evenodd" clip-rule="evenodd" d="M9.11914 27.2947C9.11914 27.0651 9.30529 26.8789 9.53491 26.8789H25.1263C25.356 26.8789 25.5421 27.0651 25.5421 27.2947C25.5421 27.5243 25.356 27.7104 25.1263 27.7104H9.95068V30.6208C9.95068 30.8505 9.76454 31.0366 9.53491 31.0366C9.30529 31.0366 9.11914 30.8505 9.11914 30.6208V27.2947Z" fill="#FE666D"/>
<path d="M21.564 21.9504H20.0516V16.1205L18.2461 16.6805V15.4507L21.4017 14.3203H21.564V21.9504Z" fill="#FFEF9C"/>
<path fill-rule="evenodd" clip-rule="evenodd" d="M22.4577 21.949C22.4577 22.4422 22.0578 22.8421 21.5645 22.8421H20.0521C19.5589 22.8421 19.159 22.4422 19.159 21.949V17.3313L18.5112 17.5322C18.2402 17.6162 17.9453 17.5665 17.7168 17.3981C17.4884 17.2298 17.3535 16.9629 17.3535 16.6791V15.4493C17.3535 15.0722 17.5904 14.7357 17.9455 14.6085L21.1011 13.4781C21.1977 13.4435 21.2996 13.4258 21.4023 13.4258H21.5645C22.0578 13.4258 22.4577 13.8257 22.4577 14.3189V21.949ZM20.0521 16.1192V21.949H21.5645V14.3189H21.4023L18.2467 15.4493V16.6791L20.0521 16.1192Z" fill="#E89B05"/>
</svg>
