<svg width="41" height="41" viewBox="0 0 41 41" fill="none" xmlns="http://www.w3.org/2000/svg">
<path d="M33.8327 19.1263C33.8327 26.4901 27.8631 32.4596 20.4993 32.4596C13.1356 32.4596 7.16602 26.4901 7.16602 19.1263C7.16602 11.7625 13.1356 5.79297 20.4993 5.79297C27.8631 5.79297 33.8327 11.7625 33.8327 19.1263Z" fill="#BCCCD2"/>
<path fill-rule="evenodd" clip-rule="evenodd" d="M34.8197 19.1257C34.8197 27.0349 28.408 33.4467 20.4987 33.4467C12.5895 33.4467 6.17773 27.0349 6.17773 19.1257C6.17773 11.2164 12.5895 4.80469 20.4987 4.80469C28.408 4.80469 34.8197 11.2164 34.8197 19.1257ZM20.4987 32.459C27.8625 32.459 33.8321 26.4895 33.8321 19.1257C33.8321 11.7619 27.8625 5.79234 20.4987 5.79234C13.1349 5.79234 7.16539 11.7619 7.16539 19.1257C7.16539 26.4895 13.1349 32.459 20.4987 32.459Z" fill="#81A5B0"/>
<path fill-rule="evenodd" clip-rule="evenodd" d="M8.15464 19.6211C7.8819 19.6211 7.66081 19.4 7.66081 19.1273C7.66081 12.0362 13.4093 6.28776 20.5003 6.28776C20.773 6.28776 20.9941 6.50886 20.9941 6.78159C20.9941 7.05432 20.773 7.27542 20.5003 7.27542C13.9547 7.27541 8.64846 12.5817 8.64846 19.1273C8.64846 19.4 8.42737 19.6211 8.15464 19.6211Z" fill="#D0DEE3"/>
<path fill-rule="evenodd" clip-rule="evenodd" d="M32.8454 18.6328C33.1181 18.6328 33.3392 18.8539 33.3392 19.1266C33.3392 26.2177 27.5907 31.9661 20.4997 31.9661C20.227 31.9661 20.0059 31.7451 20.0059 31.4723C20.0059 31.1996 20.227 30.9785 20.4997 30.9785C27.0453 30.9785 32.3515 25.6722 32.3515 19.1266C32.3515 18.8539 32.5726 18.6328 32.8454 18.6328Z" fill="#A2B9C1"/>
<path d="M30.3761 19.1265C30.3761 24.5812 25.9543 29.0031 20.4996 29.0031C15.0449 29.0031 10.623 24.5812 10.623 19.1265C10.623 13.6719 15.0449 9.25 20.4996 9.25C25.9543 9.25 30.3761 13.6719 30.3761 19.1265Z" fill="#C7D4D8"/>
<path fill-rule="evenodd" clip-rule="evenodd" d="M31.3632 19.1259C31.3632 25.126 26.4991 29.9901 20.499 29.9901C14.4988 29.9901 9.63477 25.126 9.63477 19.1259C9.63477 13.1258 14.4988 8.26172 20.499 8.26172C26.4991 8.26172 31.3632 13.1258 31.3632 19.1259ZM20.499 29.0025C25.9536 29.0025 30.3755 24.5806 30.3755 19.1259C30.3755 13.6713 25.9536 9.24937 20.499 9.24937C15.0443 9.24937 10.6224 13.6713 10.6224 19.1259C10.6224 24.5806 15.0443 29.0025 20.499 29.0025Z" fill="#81A5B0"/>
<path fill-rule="evenodd" clip-rule="evenodd" d="M20.5001 27.5202C25.1366 27.5202 28.8952 23.7616 28.8952 19.1251C28.8952 18.8524 29.1163 18.6313 29.389 18.6313C29.6617 18.6313 29.8828 18.8524 29.8828 19.1251C29.8828 24.307 25.682 28.5078 20.5001 28.5078C20.2274 28.5078 20.0063 28.2867 20.0063 28.014C20.0063 27.7413 20.2274 27.5202 20.5001 27.5202Z" fill="#B5C3C8"/>
<path fill-rule="evenodd" clip-rule="evenodd" d="M20.4999 10.7298C15.8634 10.7298 12.1048 14.4884 12.1048 19.1249C12.1048 19.3976 11.8837 19.6187 11.611 19.6187C11.3383 19.6187 11.1172 19.3976 11.1172 19.1249C11.1172 13.943 15.318 9.74219 20.4999 9.74219C20.7726 9.74219 20.9937 9.96328 20.9937 10.236C20.9937 10.5087 20.7726 10.7298 20.4999 10.7298Z" fill="#D9EAEF"/>
<path d="M5.40534 32.272L4.13335 29.728C3.99483 29.451 4.19628 29.125 4.50603 29.125L10.0818 29.125C10.312 29.125 10.4985 29.3115 10.4985 29.5417L10.4985 35.375C10.4985 35.6051 10.312 35.7917 10.0818 35.7917L4.50603 35.7917C4.19628 35.7917 3.99483 35.4657 4.13335 35.1887L5.40534 32.6447C5.464 32.5274 5.464 32.3893 5.40534 32.272Z" fill="#C52229"/>
<path d="M35.5917 32.272L36.8637 29.728C37.0022 29.451 36.8007 29.125 36.491 29.125L30.9152 29.125C30.6851 29.125 30.4985 29.3115 30.4985 29.5417L30.4985 35.375C30.4985 35.6051 30.6851 35.7917 30.9152 35.7917L36.491 35.7917C36.8007 35.7917 37.0022 35.4657 36.8637 35.1887L35.5917 32.6447C35.533 32.5274 35.533 32.3893 35.5917 32.272Z" fill="#C52229"/>
<path fill-rule="evenodd" clip-rule="evenodd" d="M4.5664 32.4596L3.38757 30.102C2.97201 29.2709 3.57637 28.293 4.50561 28.293L10.0814 28.293C10.7718 28.293 11.3314 28.8526 11.3314 29.543L11.3314 35.3763C11.3314 36.0667 10.7718 36.6263 10.0814 36.6263L4.5056 36.6263C3.57637 36.6263 2.97201 35.6484 3.38757 34.8173L4.5664 32.4596ZM4.65932 32.6455C4.65941 32.6457 4.65949 32.6458 4.65957 32.646L5.03225 32.4596L4.65956 32.646L4.65932 32.6455ZM36.4298 32.4596L37.6086 30.102C38.0242 29.2709 37.4198 28.293 36.4906 28.293L30.9148 28.293C30.2244 28.293 29.6648 28.8526 29.6648 29.543L29.6648 35.3763C29.6648 36.0667 30.2244 36.6263 30.9148 36.6263L36.4906 36.6263C37.4198 36.6263 38.0242 35.6484 37.6086 34.8173L36.4298 32.4596ZM36.8633 29.7293L35.5913 32.2733C35.5326 32.3906 35.5326 32.5287 35.5913 32.646L36.8633 35.19C37.0018 35.467 36.8003 35.793 36.4906 35.793L30.9148 35.793C30.6846 35.793 30.4981 35.6064 30.4981 35.3763L30.4981 29.543C30.4981 29.3128 30.6846 29.1263 30.9148 29.1263L36.4906 29.1263C36.8003 29.1263 37.0018 29.4523 36.8633 29.7293ZM4.13293 29.7293L5.40492 32.2733C5.46357 32.3906 5.46357 32.5287 5.40492 32.646L4.13293 35.19C3.99441 35.467 4.19586 35.793 4.5056 35.793L10.0814 35.793C10.3115 35.793 10.4981 35.6064 10.4981 35.3763L10.4981 29.543C10.4981 29.3128 10.3115 29.1263 10.0814 29.1263L4.50561 29.1263C4.19586 29.1263 3.99441 29.4523 4.13293 29.7293Z" fill="#9B0F15"/>
<path fill-rule="evenodd" clip-rule="evenodd" d="M4.72823 29.5031C4.80453 29.382 4.93762 29.3086 5.08073 29.3086H6.85156C7.08168 29.3086 7.26823 29.4951 7.26823 29.7253C7.26823 29.9554 7.08168 30.1419 6.85156 30.1419H5.74187L6.60245 31.9413C6.70174 32.1489 6.61393 32.3977 6.40634 32.497C6.19874 32.5963 5.94996 32.5085 5.85067 32.3009L4.70484 29.905C4.6431 29.7759 4.65193 29.6242 4.72823 29.5031Z" fill="#DF3840"/>
<path d="M32.1641 33.7109L32.1641 27.8776C32.1641 27.6475 31.9775 27.4609 31.7474 27.4609L9.2474 27.4609C9.01728 27.4609 8.83073 27.6475 8.83073 27.8776L8.83073 33.7109C8.83073 33.9411 9.01728 34.1276 9.2474 34.1276L31.7474 34.1276C31.9775 34.1276 32.1641 33.9411 32.1641 33.7109Z" fill="#F1333B"/>
<path fill-rule="evenodd" clip-rule="evenodd" d="M32.998 27.875L32.998 33.7083C32.998 34.3987 32.4384 34.9583 31.748 34.9583L9.24805 34.9583C8.55769 34.9583 7.99805 34.3987 7.99805 33.7083L7.99805 27.875C7.99805 27.1846 8.55769 26.625 9.24805 26.625L31.748 26.625C32.4384 26.625 32.998 27.1846 32.998 27.875ZM32.1647 27.875L32.1647 33.7083C32.1647 33.9385 31.9782 34.125 31.748 34.125L9.24805 34.125C9.01793 34.125 8.83138 33.9385 8.83138 33.7083L8.83138 27.875C8.83138 27.6449 9.01793 27.4583 9.24805 27.4583L31.748 27.4583C31.9782 27.4583 32.1647 27.6449 32.1647 27.875Z" fill="#9B0F15"/>
<path d="M31.0122 30.9469C30.7763 30.9469 30.585 30.7603 30.585 30.5301C30.585 30.2999 30.7763 30.1133 31.0122 30.1133C31.2482 30.1133 31.4395 30.2999 31.4395 30.5301C31.4395 30.7603 31.2482 30.9469 31.0122 30.9469Z" fill="#DB1B24"/>
<path d="M29.3885 30.783C29.095 30.783 28.8571 30.5509 28.8571 30.2645C28.8571 29.9782 29.095 29.7461 29.3885 29.7461C29.682 29.7461 29.9199 29.9782 29.9199 30.2645C29.9199 30.5509 29.682 30.783 29.3885 30.783Z" fill="#DB1B24"/>
<path d="M30.1112 31.9677C29.9645 31.9677 29.8455 31.8516 29.8455 31.7084C29.8455 31.5653 29.9645 31.4492 30.1112 31.4492C30.258 31.4492 30.377 31.5653 30.377 31.7084C30.377 31.8516 30.258 31.9677 30.1112 31.9677Z" fill="#DB1B24"/>
<path d="M29.6542 29.2255C29.5075 29.2255 29.3885 29.1094 29.3885 28.9663C29.3885 28.8231 29.5075 28.707 29.6542 28.707C29.801 28.707 29.9199 28.8231 29.9199 28.9663C29.9199 29.1094 29.801 29.2255 29.6542 29.2255Z" fill="#DB1B24"/>
<path d="M28.2577 31.7059C28.111 31.7059 27.992 31.5899 27.992 31.4467C27.992 31.3036 28.111 31.1875 28.2577 31.1875C28.4045 31.1875 28.5234 31.3036 28.5234 31.4467C28.5234 31.5899 28.4045 31.7059 28.2577 31.7059Z" fill="#DB1B24"/>
<path d="M27.9921 30.3739C27.8454 30.3739 27.7264 30.2579 27.7264 30.1147C27.7264 29.9715 27.8454 29.8555 27.9921 29.8555C28.1389 29.8555 28.2578 29.9715 28.2578 30.1147C28.2578 30.2579 28.1389 30.3739 27.9921 30.3739Z" fill="#DB1B24"/>
<path d="M26.1796 33.3817C26.0329 33.3817 25.9139 33.2657 25.9139 33.1225C25.9139 32.9793 26.0329 32.8633 26.1796 32.8633C26.3264 32.8633 26.4453 32.9793 26.4453 33.1225C26.4453 33.2657 26.3264 33.3817 26.1796 33.3817Z" fill="#DB1B24"/>
<path d="M31.4667 32.3895C31.32 32.3895 31.201 32.2735 31.201 32.1303C31.201 31.9872 31.32 31.8711 31.4667 31.8711C31.6135 31.8711 31.7324 31.9872 31.7324 32.1303C31.7324 32.2735 31.6135 32.3895 31.4667 32.3895Z" fill="#DB1B24"/>
<path d="M28.9562 32.957C28.7174 32.957 28.5238 32.7682 28.5238 32.5352C28.5238 32.3022 28.7174 32.1133 28.9562 32.1133C29.1951 32.1133 29.3887 32.3022 29.3887 32.5352C29.3887 32.7682 29.1951 32.957 28.9562 32.957Z" fill="#DB1B24"/>
<path d="M30.8098 33.3789C30.5709 33.3789 30.3773 33.19 30.3773 32.957C30.3773 32.724 30.5709 32.5352 30.8098 32.5352C31.0486 32.5352 31.2422 32.724 31.2422 32.957C31.2422 33.19 31.0486 33.3789 30.8098 33.3789Z" fill="#DB1B24"/>
<path d="M27.0266 32.5508C26.7877 32.5508 26.5941 32.3619 26.5941 32.1289C26.5941 31.8959 26.7877 31.707 27.0266 31.707C27.2654 31.707 27.459 31.8959 27.459 32.1289C27.459 32.3619 27.2654 32.5508 27.0266 32.5508Z" fill="#DB1B24"/>
<path d="M27.7265 33.5106C27.5797 33.5106 27.4608 33.3946 27.4608 33.2514C27.4608 33.1082 27.5797 32.9922 27.7265 32.9922C27.8732 32.9922 27.9922 33.1082 27.9922 33.2514C27.9922 33.3946 27.8732 33.5106 27.7265 33.5106Z" fill="#DB1B24"/>
<path fill-rule="evenodd" clip-rule="evenodd" d="M9.0918 28.0573C9.0918 27.8272 9.27834 27.6406 9.50846 27.6406H25.1335C25.3636 27.6406 25.5501 27.8272 25.5501 28.0573C25.5501 28.2874 25.3636 28.474 25.1335 28.474H9.92513V31.3906C9.92513 31.6207 9.73858 31.8073 9.50846 31.8073C9.27834 31.8073 9.0918 31.6207 9.0918 31.3906V28.0573Z" fill="#FE666D"/>
<path d="M23.1205 22.7057H17.8865V21.6673L20.3566 19.0346C20.6958 18.664 20.9458 18.3406 21.1066 18.0643C21.2709 17.7881 21.3531 17.5259 21.3531 17.2777C21.3531 16.9385 21.2674 16.6728 21.0961 16.4805C20.9248 16.2847 20.68 16.1868 20.3619 16.1868C20.0192 16.1868 19.7483 16.3057 19.549 16.5434C19.3532 16.7777 19.2553 17.0871 19.2553 17.4717H17.7344C17.7344 17.0067 17.8445 16.5819 18.0648 16.1973C18.2885 15.8127 18.6032 15.512 19.0088 15.2952C19.4144 15.075 19.8741 14.9648 20.3881 14.9648C21.1748 14.9648 21.7849 15.1536 22.2184 15.5313C22.6555 15.9089 22.874 16.442 22.874 17.1308C22.874 17.5084 22.7761 17.893 22.5803 18.2846C22.3845 18.6762 22.0489 19.1325 21.5734 19.6534L19.8374 21.4838H23.1205V22.7057Z" fill="#D9EAEF"/>
<path fill-rule="evenodd" clip-rule="evenodd" d="M24.0161 22.7063C24.0161 23.2006 23.6153 23.6013 23.121 23.6013H17.887C17.3927 23.6013 16.9919 23.2006 16.9919 22.7063V21.6678C16.9919 21.4403 17.0786 21.2213 17.2343 21.0554L19.7005 18.4268C20.0159 18.0818 20.2182 17.8128 20.3336 17.6145L20.3379 17.6072C20.4436 17.4295 20.4586 17.3245 20.4586 17.2782C20.4586 17.1826 20.4463 17.1266 20.4375 17.0992C20.436 17.0945 20.4346 17.0906 20.4333 17.0874C20.419 17.085 20.396 17.0824 20.3624 17.0824C20.2955 17.0824 20.2674 17.0937 20.2618 17.0962C20.2583 17.0977 20.2559 17.0991 20.2533 17.1011C20.2506 17.1032 20.2446 17.1081 20.2359 17.1185C20.2065 17.1538 20.1509 17.2426 20.1509 17.4722C20.1509 17.9666 19.7501 18.3673 19.2558 18.3673H17.7349C17.2406 18.3673 16.8398 17.9666 16.8398 17.4722C16.8398 16.8592 16.9869 16.2798 17.2886 15.753L17.2916 15.7477C17.6013 15.2155 18.0391 14.8 18.5848 14.5078C19.1352 14.2095 19.7437 14.0703 20.3886 14.0703C21.3109 14.0703 22.1576 14.2921 22.8055 14.8557C23.4765 15.4361 23.7696 16.2381 23.7696 17.1314C23.7696 17.6685 23.6294 18.1894 23.3814 18.6854C23.1332 19.1818 22.7366 19.7078 22.235 20.2574C22.2311 20.2616 22.2272 20.2658 22.2233 20.2699L21.9204 20.5892H23.121C23.6153 20.5892 24.0161 20.99 24.0161 21.4843V22.7063ZM19.838 21.4843L21.5739 19.654C22.0494 19.133 22.385 18.6767 22.5808 18.2851C22.7766 17.8936 22.8745 17.509 22.8745 17.1314C22.8745 16.4426 22.656 15.9094 22.219 15.5318C21.7854 15.1542 21.1753 14.9654 20.3886 14.9654C19.8747 14.9654 19.4149 15.0755 19.0093 15.2958C18.6037 15.5126 18.2891 15.8132 18.0653 16.1978C17.9952 16.3202 17.9363 16.4467 17.8885 16.5772C17.7861 16.8568 17.7349 17.1552 17.7349 17.4722H19.2558C19.2558 17.0876 19.3537 16.7782 19.5495 16.544C19.7488 16.3062 20.0198 16.1873 20.3624 16.1873C20.6806 16.1873 20.9253 16.2852 21.0966 16.481C21.268 16.6733 21.3536 16.9391 21.3536 17.2782C21.3536 17.5264 21.2714 17.7887 21.1071 18.0649C20.9463 18.3411 20.6963 18.6645 20.3572 19.0351L17.887 21.6678V22.7063H23.121V21.4843H19.838Z" fill="#81A5B0"/>
</svg>
