<svg width="28" height="13" viewBox="0 0 28 13" fill="none" xmlns="http://www.w3.org/2000/svg">
<path d="M3.90625 7.42188L2.71875 6.70312C1.97396 6.25 1.44271 5.80469 1.125 5.36719C0.8125 4.92448 0.65625 4.41667 0.65625 3.84375C0.65625 2.98438 0.953125 2.28646 1.54688 1.75C2.14583 1.21354 2.92188 0.945312 3.875 0.945312C4.78646 0.945312 5.6224 1.20052 6.38281 1.71094V3.48438C5.59635 2.72917 4.75 2.35156 3.84375 2.35156C3.33333 2.35156 2.91406 2.47135 2.58594 2.71094C2.25781 2.94531 2.09375 3.2474 2.09375 3.61719C2.09375 3.94531 2.21354 4.2526 2.45312 4.53906C2.69271 4.82552 3.08073 5.125 3.61719 5.4375L4.8125 6.14062C6.14583 6.93229 6.8125 7.94271 6.8125 9.17188C6.8125 10.0469 6.51823 10.7578 5.92969 11.3047C5.34635 11.8516 4.58594 12.125 3.64844 12.125C2.57031 12.125 1.58854 11.7943 0.703125 11.1328V9.14844C1.54688 10.2161 2.52344 10.75 3.63281 10.75C4.1224 10.75 4.52865 10.6146 4.85156 10.3438C5.17969 10.0677 5.34375 9.72396 5.34375 9.3125C5.34375 8.64583 4.86458 8.01562 3.90625 7.42188ZM12.8516 7.67969V10.7344C12.8516 10.9792 12.9349 11.1016 13.1016 11.1016C13.2734 11.1016 13.5417 10.974 13.9062 10.7188V11.5859C13.5833 11.7943 13.3229 11.9349 13.125 12.0078C12.9323 12.0859 12.7292 12.125 12.5156 12.125C11.9062 12.125 11.5469 11.8854 11.4375 11.4062C10.8333 11.875 10.1901 12.1094 9.50781 12.1094C9.00781 12.1094 8.59115 11.9453 8.25781 11.6172C7.92448 11.2839 7.75781 10.8672 7.75781 10.3672C7.75781 9.91406 7.91927 9.51042 8.24219 9.15625C8.57031 8.79688 9.03385 8.51302 9.63281 8.30469L11.4531 7.67969V7.29688C11.4531 6.43229 11.0208 6 10.1562 6C9.38021 6 8.625 6.40104 7.89062 7.20312V5.64844C8.44271 4.9974 9.23698 4.67188 10.2734 4.67188C11.0495 4.67188 11.6719 4.875 12.1406 5.28125C12.2969 5.41146 12.4375 5.58594 12.5625 5.80469C12.6875 6.01823 12.7656 6.23438 12.7969 6.45312C12.8333 6.66667 12.8516 7.07552 12.8516 7.67969ZM11.4531 10.5781V8.44531L10.5 8.8125C10.0156 9.00521 9.67188 9.20052 9.46875 9.39844C9.27083 9.59115 9.17188 9.83333 9.17188 10.125C9.17188 10.4219 9.26562 10.6641 9.45312 10.8516C9.64583 11.0391 9.89323 11.1328 10.1953 11.1328C10.6484 11.1328 11.0677 10.9479 11.4531 10.5781ZM19 4.8125H20.5391L17.3672 12.125H16.8906L13.6406 4.8125H15.1953L17.1328 9.23438L19 4.8125ZM27.4141 8.53125H22.3594C22.3958 9.21875 22.625 9.76562 23.0469 10.1719C23.474 10.5781 24.0234 10.7812 24.6953 10.7812C25.6328 10.7812 26.4974 10.4896 27.2891 9.90625V11.2969C26.8516 11.5885 26.4167 11.7969 25.9844 11.9219C25.5573 12.0469 25.0547 12.1094 24.4766 12.1094C23.6849 12.1094 23.0443 11.9453 22.5547 11.6172C22.0651 11.2891 21.6719 10.849 21.375 10.2969C21.0833 9.73958 20.9375 9.09635 20.9375 8.36719C20.9375 7.27344 21.2474 6.38542 21.8672 5.70312C22.487 5.01562 23.2917 4.67188 24.2812 4.67188C25.2344 4.67188 25.9948 5.00521 26.5625 5.67188C27.1302 6.33854 27.4141 7.23177 27.4141 8.35156V8.53125ZM22.3906 7.67969H26.0078C25.9714 7.11198 25.8021 6.67448 25.5 6.36719C25.1979 6.0599 24.7917 5.90625 24.2812 5.90625C23.7708 5.90625 23.3516 6.0599 23.0234 6.36719C22.7005 6.67448 22.4896 7.11198 22.3906 7.67969Z" fill="white"/>
</svg>
