<svg width="33" height="33" viewBox="0 0 33 33" fill="none" xmlns="http://www.w3.org/2000/svg">
<g filter="url(#filter0_d_2765_100683)">
<circle cx="16.083" cy="14.5" r="8" fill="white"/>
<path d="M15.5841 9.54201C15.8776 9.31965 16.2832 9.31965 16.5767 9.54201L19.7995 11.9835C19.9761 12.1173 20.0912 12.3166 20.1188 12.5364L20.6217 16.5482C20.6676 16.9136 20.4648 17.2648 20.1254 17.4078L16.3996 18.9781C16.1955 19.0642 15.9653 19.0642 15.7612 18.9781L12.0354 17.4078C11.6961 17.2648 11.4933 16.9136 11.5391 16.5482L12.042 12.5364C12.0696 12.3166 12.1847 12.1173 12.3613 11.9835L15.5841 9.54201Z" fill="#ED7D31"/>
<path d="M16.4707 12.6133L16.8618 13.3955C16.9151 13.5044 17.0574 13.6088 17.1774 13.6288L17.8862 13.7466C18.3396 13.8221 18.4462 14.151 18.1196 14.4755L17.5685 15.0266C17.4751 15.1199 17.424 15.2999 17.4529 15.4288L17.6107 16.111C17.7351 16.651 17.4485 16.8599 16.9707 16.5777L16.3062 16.1844C16.1862 16.1133 15.9885 16.1133 15.8662 16.1844L15.2018 16.5777C14.7262 16.8599 14.4374 16.6488 14.5618 16.111L14.7196 15.4288C14.7485 15.2999 14.6974 15.1199 14.604 15.0266L14.0529 14.4755C13.7285 14.151 13.8329 13.8221 14.2862 13.7466L14.9951 13.6288C15.1129 13.6088 15.2551 13.5044 15.3085 13.3955L15.6996 12.6133C15.9129 12.1888 16.2596 12.1888 16.4707 12.6133Z" fill="white"/>
</g>
<defs>
<filter id="filter0_d_2765_100683" x="0.0830078" y="0.5" width="32" height="32" filterUnits="userSpaceOnUse" color-interpolation-filters="sRGB">
<feFlood flood-opacity="0" result="BackgroundImageFix"/>
<feColorMatrix in="SourceAlpha" type="matrix" values="0 0 0 0 0 0 0 0 0 0 0 0 0 0 0 0 0 0 127 0" result="hardAlpha"/>
<feOffset dy="2"/>
<feGaussianBlur stdDeviation="4"/>
<feComposite in2="hardAlpha" operator="out"/>
<feColorMatrix type="matrix" values="0 0 0 0 0 0 0 0 0 0 0 0 0 0 0 0 0 0 0.1 0"/>
<feBlend mode="normal" in2="BackgroundImageFix" result="effect1_dropShadow_2765_100683"/>
<feBlend mode="normal" in="SourceGraphic" in2="effect1_dropShadow_2765_100683" result="shape"/>
</filter>
</defs>
</svg>
