<svg width="33" height="33" viewBox="0 0 33 33" fill="none" xmlns="http://www.w3.org/2000/svg">
<g filter="url(#filter0_d_2765_100683)">
<circle cx="16.083" cy="14.5" r="8" fill="white"/>
<path d="M15.5841 9.54201C15.8776 9.31965 16.2832 9.31965 16.5767 9.54201L19.7995 11.9835C19.9761 12.1173 20.0912 12.3166 20.1188 12.5364L20.6217 16.5482C20.6676 16.9136 20.4648 17.2648 20.1254 17.4078L16.3996 18.9781C16.1955 19.0642 15.9653 19.0642 15.7612 18.9781L12.0354 17.4078C11.6961 17.2648 11.4933 16.9136 11.5391 16.5482L12.042 12.5364C12.0696 12.3166 12.1847 12.1173 12.3613 11.9835L15.5841 9.54201Z" fill="#ED7D31"/>
<path d="M16.4707 12.6133L16.8618 13.3955C16.9151 13.5044 17.0574 13.6088 17.1774 13.6288L17.8862 13.7466C18.3396 13.8221 18.4462 14.151 18.1196 14.4755L17.5685 15.0266C17.4751 15.1199 17.424 15.2999 17.4529 15.4288L17.6107 16.111C17.7351 16.651 17.4485 16.8599 16.9707 16.5777L16.3062 16.1844C16.1862 16.1133 15.9885 16.1133 15.8662 16.1844L15.2018 16.5777C14.7262 16.8599 14.4374 16.6488 14.5618 16.111L14.7196 15.4288C14.7485 15.2999 14.6974 15.1199 14.604 15.0266L14.0529 14.4755C13.7285 14.151 13.8329 13.8221 14.2862 13.7466L14.9951 13.6288C15.1129 13.6088 15.2551 13.5044 15.3085 13.3955L15.6996 12.6133C15.9129 12.1888 16.2596 12.1888 16.4707 12.6133Z" fill="white"/>
</g>
<defs>
<filter id="filter0_d_2765_100683" x="0.0830078" y="0.5" width="32" height="32" filterUnits="userSpaceOnUse" color-interpolation-filters="sRGB">
<feFlood flood-opacity="0" result="BackgroundImageFix"/>
<feColorMatrix in="SourceAlpha" type="matrix" values="0 0 0 0 0 0 0 0 0 0 0 0 0 0 0 0 0 0 127 0" result="hardAlpha"/>
<feOffset dy="2"/>
<feGaussianBlur stdDeviation="4"/>
<feComposite in2="hardAlpha" operator="out"/>
<feColorMatrix type="matrix" values="0 0 0 0 0 0 0 0 0 0 0 0 0 0 0 0 0 0 0.1 0"/>
<feBlend mode="normal" in2="BackgroundImageFix" result="effect1_dropShadow_2765_100683"/>
<feBlend mode="normal" in="SourceGraphic" in2="effect1_dropShadow_2765_100683" result="shape"/>
<svg width="56" height="57" viewBox="0 0 56 57" fill="none" xmlns="http://www.w3.org/2000/svg">
<g filter="url(#filter0_d_950_26037)">
<circle cx="27.9285" cy="24.8582" r="13.9441" fill="white"/>
<path d="M27.0597 16.2177C27.5712 15.8302 28.278 15.8302 28.7895 16.2177L34.4055 20.4722C34.7131 20.7053 34.9137 21.0527 34.9617 21.4357L35.8382 28.4265C35.918 29.0632 35.5647 29.6753 34.9733 29.9245L28.4809 32.6609C28.1252 32.8108 27.724 32.8108 27.3683 32.6609L20.8758 29.9245C20.2845 29.6753 19.9311 29.0632 20.011 28.4265L20.8874 21.4357C20.9355 21.0527 21.136 20.7053 21.4437 20.4722L27.0597 16.2177Z" fill="#ED7D31"/>
<path d="M28.6016 21.5705L29.2834 22.9339C29.3763 23.1237 29.6242 23.3058 29.8334 23.3406L31.069 23.5459C31.8591 23.6776 32.0451 24.2509 31.4757 24.8164L30.5151 25.777C30.3524 25.9396 30.2633 26.2534 30.3137 26.478L30.5887 27.6672C30.8056 28.6084 30.3059 28.9725 29.4732 28.4806L28.315 27.795C28.1059 27.671 27.7611 27.671 27.5481 27.795L26.3899 28.4806C25.561 28.9725 25.0575 28.6045 25.2744 27.6672L25.5494 26.478C25.5998 26.2534 25.5107 25.9396 25.348 25.777L24.3874 24.8164C23.8219 24.2509 24.004 23.6776 24.7941 23.5459L26.0297 23.3406C26.235 23.3058 26.4829 23.1237 26.5759 22.9339L27.2576 21.5705C27.6294 20.8307 28.2337 20.8307 28.6016 21.5705Z" fill="white"/>
</g>
<defs>
<filter id="filter0_d_950_26037" x="0.0402422" y="0.455963" width="55.7769" height="55.775" filterUnits="userSpaceOnUse" color-interpolation-filters="sRGB">
<feFlood flood-opacity="0" result="BackgroundImageFix"/>
<feColorMatrix in="SourceAlpha" type="matrix" values="0 0 0 0 0 0 0 0 0 0 0 0 0 0 0 0 0 0 127 0" result="hardAlpha"/>
<feOffset dy="3.48603"/>
<feGaussianBlur stdDeviation="6.97207"/>
<feComposite in2="hardAlpha" operator="out"/>
<feColorMatrix type="matrix" values="0 0 0 0 0 0 0 0 0 0 0 0 0 0 0 0 0 0 0.1 0"/>
<feBlend mode="normal" in2="BackgroundImageFix" result="effect1_dropShadow_950_26037"/>
<feBlend mode="normal" in="SourceGraphic" in2="effect1_dropShadow_950_26037" result="shape"/>
</filter>
</defs>
</svg>
