<svg width="37" height="36" viewBox="0 0 37 36" fill="none" xmlns="http://www.w3.org/2000/svg">
<g filter="url(#filter0_d_2765_110557)">
<circle cx="18.4898" cy="15.9487" r="8.89796" fill="white"/>
<path d="M17.9352 10.4357C18.2616 10.1884 18.7126 10.1884 19.039 10.4357L22.6227 13.1505C22.819 13.2992 22.947 13.5209 22.9776 13.7653L23.5369 18.2263C23.5879 18.6326 23.3623 19.0232 22.985 19.1822L18.8421 20.9283C18.6151 21.024 18.3591 21.024 18.1321 20.9283L13.9892 19.1822C13.6119 19.0232 13.3864 18.6326 13.4373 18.2263L13.9966 13.7653C14.0272 13.5209 14.1552 13.2992 14.3516 13.1505L17.9352 10.4357Z" fill="#ED7D31"/>
<path d="M18.919 13.8502L19.354 14.7202C19.4133 14.8413 19.5715 14.9575 19.705 14.9797L20.4935 15.1107C20.9977 15.1947 21.1163 15.5605 20.753 15.9214L20.14 16.5344C20.0362 16.6382 19.9793 16.8384 20.0115 16.9817L20.187 17.7405C20.3254 18.3412 20.0065 18.5735 19.4751 18.2596L18.7361 17.8221C18.6026 17.743 18.3827 17.743 18.2467 17.8221L17.5077 18.2596C16.9788 18.5735 16.6574 18.3387 16.7959 17.7405L16.9713 16.9817C17.0035 16.8384 16.9466 16.6382 16.8428 16.5344L16.2298 15.9214C15.869 15.5605 15.9852 15.1947 16.4894 15.1107L17.2778 14.9797C17.4088 14.9575 17.567 14.8413 17.6263 14.7202L18.0613 13.8502C18.2986 13.3781 18.6842 13.3781 18.919 13.8502Z" fill="white"/>
</g>
<defs>
<filter id="filter0_d_2765_110557" x="0.693839" y="0.377313" width="35.5918" height="35.5928" filterUnits="userSpaceOnUse" color-interpolation-filters="sRGB">
<feFlood flood-opacity="0" result="BackgroundImageFix"/>
<feColorMatrix in="SourceAlpha" type="matrix" values="0 0 0 0 0 0 0 0 0 0 0 0 0 0 0 0 0 0 127 0" result="hardAlpha"/>
<feOffset dy="2.22449"/>
<feGaussianBlur stdDeviation="4.44898"/>
<feComposite in2="hardAlpha" operator="out"/>
<feColorMatrix type="matrix" values="0 0 0 0 0 0 0 0 0 0 0 0 0 0 0 0 0 0 0.1 0"/>
<feBlend mode="normal" in2="BackgroundImageFix" result="effect1_dropShadow_2765_110557"/>
<feBlend mode="normal" in="SourceGraphic" in2="effect1_dropShadow_2765_110557" result="shape"/>
</filter>
</defs>
</svg>
