<svg width="24" height="25" viewBox="0 0 24 25" fill="none" xmlns="http://www.w3.org/2000/svg">
<path d="M8 5.77344C7.59 5.77344 7.25 5.43344 7.25 5.02344V2.02344C7.25 1.61344 7.59 1.27344 8 1.27344C8.41 1.27344 8.75 1.61344 8.75 2.02344V5.02344C8.75 5.43344 8.41 5.77344 8 5.77344Z" fill="#667085"/>
<path d="M16 5.77344C15.59 5.77344 15.25 5.43344 15.25 5.02344V2.02344C15.25 1.61344 15.59 1.27344 16 1.27344C16.41 1.27344 16.75 1.61344 16.75 2.02344V5.02344C16.75 5.43344 16.41 5.77344 16 5.77344Z" fill="#667085"/>
<path d="M15 11.7734H7C6.59 11.7734 6.25 11.4334 6.25 11.0234C6.25 10.6134 6.59 10.2734 7 10.2734H15C15.41 10.2734 15.75 10.6134 15.75 11.0234C15.75 11.4334 15.41 11.7734 15 11.7734Z" fill="#667085"/>
<path d="M12 15.7734H7C6.59 15.7734 6.25 15.4334 6.25 15.0234C6.25 14.6134 6.59 14.2734 7 14.2734H12C12.41 14.2734 12.75 14.6134 12.75 15.0234C12.75 15.4334 12.41 15.7734 12 15.7734Z" fill="#667085"/>
<path d="M15 22.7734H9C3.38 22.7734 2.25 20.1234 2.25 15.8434V9.67344C2.25 4.93344 3.85 3.00344 7.96 2.77344H16C20.15 3.00344 21.75 4.93344 21.75 9.67344V16.0234C21.75 16.4334 21.41 16.7734 21 16.7734C20.59 16.7734 20.25 16.4334 20.25 16.0234V9.67344C20.25 5.31344 18.8 4.43344 15.96 4.27344H8C5.2 4.43344 3.75 5.31344 3.75 9.67344V15.8434C3.75 19.6734 4.48 21.2734 9 21.2734H15C15.41 21.2734 15.75 21.6134 15.75 22.0234C15.75 22.4334 15.41 22.7734 15 22.7734Z" fill="#667085"/>
<path d="M15 22.7734C14.9 22.7734 14.81 22.7534 14.71 22.7134C14.43 22.5934 14.25 22.3234 14.25 22.0234V19.0234C14.25 16.6034 15.58 15.2734 18 15.2734H21C21.3 15.2734 21.58 15.4534 21.69 15.7334C21.81 16.0134 21.74 16.3334 21.53 16.5534L15.53 22.5534C15.39 22.6934 15.2 22.7734 15 22.7734ZM18 16.7734C16.42 16.7734 15.75 17.4434 15.75 19.0234V20.2134L19.19 16.7734H18Z" fill="#667085"/>
</svg>
