<svg width="25" height="25" viewBox="0 0 25 25" fill="none" xmlns="http://www.w3.org/2000/svg">
<path d="M8.18457 6.56641C7.77457 6.56641 7.43457 6.22641 7.43457 5.81641V2.81641C7.43457 2.40641 7.77457 2.06641 8.18457 2.06641C8.59457 2.06641 8.93457 2.40641 8.93457 2.81641V5.81641C8.93457 6.22641 8.59457 6.56641 8.18457 6.56641Z" fill="#7A0019"/>
<path d="M16.1846 6.56641C15.7746 6.56641 15.4346 6.22641 15.4346 5.81641V2.81641C15.4346 2.40641 15.7746 2.06641 16.1846 2.06641C16.5946 2.06641 16.9346 2.40641 16.9346 2.81641V5.81641C16.9346 6.22641 16.5946 6.56641 16.1846 6.56641Z" fill="#7A0019"/>
<path d="M15.1846 12.5664H7.18457C6.77457 12.5664 6.43457 12.2264 6.43457 11.8164C6.43457 11.4064 6.77457 11.0664 7.18457 11.0664H15.1846C15.5946 11.0664 15.9346 11.4064 15.9346 11.8164C15.9346 12.2264 15.5946 12.5664 15.1846 12.5664Z" fill="#7A0019"/>
<path d="M12.1846 16.5664H7.18457C6.77457 16.5664 6.43457 16.2264 6.43457 15.8164C6.43457 15.4064 6.77457 15.0664 7.18457 15.0664H12.1846C12.5946 15.0664 12.9346 15.4064 12.9346 15.8164C12.9346 16.2264 12.5946 16.5664 12.1846 16.5664Z" fill="#7A0019"/>
<path d="M15.1846 23.5664H9.18457C3.56457 23.5664 2.43457 20.9164 2.43457 16.6364V10.4664C2.43457 5.72641 4.03457 3.79641 8.14457 3.56641H16.1846C20.3346 3.79641 21.9346 5.72641 21.9346 10.4664V16.8164C21.9346 17.2264 21.5946 17.5664 21.1846 17.5664C20.7746 17.5664 20.4346 17.2264 20.4346 16.8164V10.4664C20.4346 6.10641 18.9846 5.22641 16.1446 5.06641H8.18457C5.38457 5.22641 3.93457 6.10641 3.93457 10.4664V16.6364C3.93457 20.4664 4.66457 22.0664 9.18457 22.0664H15.1846C15.5946 22.0664 15.9346 22.4064 15.9346 22.8164C15.9346 23.2264 15.5946 23.5664 15.1846 23.5664Z" fill="#7A0019"/>
<path d="M15.1846 23.5664C15.0846 23.5664 14.9946 23.5464 14.8946 23.5064C14.6146 23.3864 14.4346 23.1164 14.4346 22.8164V19.8164C14.4346 17.3964 15.7646 16.0664 18.1846 16.0664H21.1846C21.4846 16.0664 21.7646 16.2464 21.8746 16.5264C21.9946 16.8064 21.9246 17.1264 21.7146 17.3464L15.7146 23.3464C15.5746 23.4864 15.3846 23.5664 15.1846 23.5664ZM18.1846 17.5664C16.6046 17.5664 15.9346 18.2364 15.9346 19.8164V21.0064L19.3746 17.5664H18.1846Z" fill="#7A0019"/>
</svg>
