<svg width="25" height="25" viewBox="0 0 25 25" fill="none" xmlns="http://www.w3.org/2000/svg">
<path d="M8.18359 6.56641C7.77359 6.56641 7.43359 6.22641 7.43359 5.81641V2.81641C7.43359 2.40641 7.77359 2.06641 8.18359 2.06641C8.59359 2.06641 8.93359 2.40641 8.93359 2.81641V5.81641C8.93359 6.22641 8.59359 6.56641 8.18359 6.56641Z" fill="#007A61"/>
<path d="M16.1836 6.56641C15.7736 6.56641 15.4336 6.22641 15.4336 5.81641V2.81641C15.4336 2.40641 15.7736 2.06641 16.1836 2.06641C16.5936 2.06641 16.9336 2.40641 16.9336 2.81641V5.81641C16.9336 6.22641 16.5936 6.56641 16.1836 6.56641Z" fill="#007A61"/>
<path d="M15.1836 12.5664H7.18359C6.77359 12.5664 6.43359 12.2264 6.43359 11.8164C6.43359 11.4064 6.77359 11.0664 7.18359 11.0664H15.1836C15.5936 11.0664 15.9336 11.4064 15.9336 11.8164C15.9336 12.2264 15.5936 12.5664 15.1836 12.5664Z" fill="#007A61"/>
<path d="M12.1836 16.5664H7.18359C6.77359 16.5664 6.43359 16.2264 6.43359 15.8164C6.43359 15.4064 6.77359 15.0664 7.18359 15.0664H12.1836C12.5936 15.0664 12.9336 15.4064 12.9336 15.8164C12.9336 16.2264 12.5936 16.5664 12.1836 16.5664Z" fill="#007A61"/>
<path d="M15.1836 23.5664H9.18359C3.56359 23.5664 2.43359 20.9164 2.43359 16.6364V10.4664C2.43359 5.72641 4.03359 3.79641 8.14359 3.56641H16.1836C20.3336 3.79641 21.9336 5.72641 21.9336 10.4664V16.8164C21.9336 17.2264 21.5936 17.5664 21.1836 17.5664C20.7736 17.5664 20.4336 17.2264 20.4336 16.8164V10.4664C20.4336 6.10641 18.9836 5.22641 16.1436 5.06641H8.18359C5.38359 5.22641 3.93359 6.10641 3.93359 10.4664V16.6364C3.93359 20.4664 4.66359 22.0664 9.18359 22.0664H15.1836C15.5936 22.0664 15.9336 22.4064 15.9336 22.8164C15.9336 23.2264 15.5936 23.5664 15.1836 23.5664Z" fill="#007A61"/>
<path d="M15.1836 23.5664C15.0836 23.5664 14.9936 23.5464 14.8936 23.5064C14.6136 23.3864 14.4336 23.1164 14.4336 22.8164V19.8164C14.4336 17.3964 15.7636 16.0664 18.1836 16.0664H21.1836C21.4836 16.0664 21.7636 16.2464 21.8736 16.5264C21.9936 16.8064 21.9236 17.1264 21.7136 17.3464L15.7136 23.3464C15.5736 23.4864 15.3836 23.5664 15.1836 23.5664ZM18.1836 17.5664C16.6036 17.5664 15.9336 18.2364 15.9336 19.8164V21.0064L19.3736 17.5664H18.1836Z" fill="#007A61"/>
</svg>
