<svg width="25" height="25" viewBox="0 0 25 25" fill="none" xmlns="http://www.w3.org/2000/svg">
<path d="M17.8047 10.4355H12.5547C12.1447 10.4355 11.8047 10.0955 11.8047 9.68555C11.8047 9.27555 12.1447 8.93555 12.5547 8.93555H17.8047C18.2147 8.93555 18.5547 9.27555 18.5547 9.68555C18.5547 10.0955 18.2247 10.4355 17.8047 10.4355Z" fill="#ED7D31"/>
<path d="M7.30414 11.1967C7.11414 11.1967 6.92414 11.1267 6.77414 10.9767L6.02414 10.2267C5.73414 9.93672 5.73414 9.45672 6.02414 9.16672C6.31414 8.87672 6.79414 8.87672 7.08414 9.16672L7.30414 9.38672L9.02414 7.66672C9.31414 7.37672 9.79414 7.37672 10.0841 7.66672C10.3741 7.95672 10.3741 8.43672 10.0841 8.72672L7.83414 10.9767C7.69414 11.1167 7.50414 11.1967 7.30414 11.1967Z" fill="#ED7D31"/>
<path d="M17.8047 17.4355H12.5547C12.1447 17.4355 11.8047 17.0955 11.8047 16.6855C11.8047 16.2755 12.1447 15.9355 12.5547 15.9355H17.8047C18.2147 15.9355 18.5547 16.2755 18.5547 16.6855C18.5547 17.0955 18.2247 17.4355 17.8047 17.4355Z" fill="#ED7D31"/>
<path d="M7.30414 18.1967C7.11414 18.1967 6.92414 18.1267 6.77414 17.9767L6.02414 17.2267C5.73414 16.9367 5.73414 16.4567 6.02414 16.1667C6.31414 15.8767 6.79414 15.8767 7.08414 16.1667L7.30414 16.3867L9.02414 14.6667C9.31414 14.3767 9.79414 14.3767 10.0841 14.6667C10.3741 14.9567 10.3741 15.4367 10.0841 15.7267L7.83414 17.9767C7.69414 18.1167 7.50414 18.1967 7.30414 18.1967Z" fill="#ED7D31"/>
<path d="M15.1846 23.5664H9.18457C3.75457 23.5664 1.43457 21.2464 1.43457 15.8164V9.81641C1.43457 4.38641 3.75457 2.06641 9.18457 2.06641H15.1846C20.6146 2.06641 22.9346 4.38641 22.9346 9.81641V15.8164C22.9346 21.2464 20.6146 23.5664 15.1846 23.5664ZM9.18457 3.56641C4.57457 3.56641 2.93457 5.20641 2.93457 9.81641V15.8164C2.93457 20.4264 4.57457 22.0664 9.18457 22.0664H15.1846C19.7946 22.0664 21.4346 20.4264 21.4346 15.8164V9.81641C21.4346 5.20641 19.7946 3.56641 15.1846 3.56641H9.18457Z" fill="#ED7D31"/>
</svg>
