<svg width="25" height="24" viewBox="0 0 25 24" fill="none" xmlns="http://www.w3.org/2000/svg">
<path fill-rule="evenodd" clip-rule="evenodd" d="M12.2513 2C9.43196 2 7.14642 4.23858 7.14642 7C7.14642 9.76142 9.43196 12 12.2513 12C15.0707 12 17.3562 9.76142 17.3562 7C17.3562 4.23858 15.0707 2 12.2513 2ZM9.18837 7C9.18837 5.34315 10.5597 4 12.2513 4C13.9429 4 15.3142 5.34315 15.3142 7C15.3142 8.65685 13.9429 10 12.2513 10C10.5597 10 9.18837 8.65685 9.18837 7Z" fill="#2D3648"/>
<path d="M8.1674 14C6.81349 14 5.51504 14.5268 4.55769 15.4645C3.60034 16.4021 3.0625 17.6739 3.0625 19V21C3.0625 21.5523 3.51961 22 4.08348 22C4.64735 22 5.10446 21.5523 5.10446 21V19C5.10446 18.2043 5.42716 17.4413 6.00157 16.8787C6.57598 16.3161 7.35505 16 8.1674 16H16.3352C17.1476 16 17.9266 16.3161 18.5011 16.8787C19.0755 17.4413 19.3982 18.2044 19.3982 19V21C19.3982 21.5523 19.8553 22 20.4191 22C20.983 22 21.4401 21.5523 21.4401 21V19C21.4401 17.6739 20.9023 16.4021 19.9449 15.4645C18.9876 14.5268 17.6891 14 16.3352 14H8.1674Z" fill="#2D3648"/>
</svg>
