<svg width="111" height="30" viewBox="0 0 111 30" fill="none" xmlns="http://www.w3.org/2000/svg">
<path fill-rule="evenodd" clip-rule="evenodd" d="M3.95736 24.9567L1.82177 22.7673L1.80399 22.7492L1.80417 22.749C1.44674 22.3827 1.22656 21.8822 1.22656 21.3299C1.22656 20.2071 2.13659 19.2971 3.2592 19.2971C3.81144 19.2971 4.31206 19.5175 4.67838 19.8748L4.67856 19.8746L4.68496 19.881L4.70808 19.9041L9.65002 24.8461H9.65381C9.72309 24.9143 9.81827 24.9566 9.92335 24.9566C10.0284 24.9566 10.1236 24.9143 10.1929 24.8461H10.1931L10.1934 24.8456C10.2439 24.7957 10.2807 24.7319 10.2974 24.6602L13.6486 18.6812H13.6491C14.4577 17.2388 16.0008 16.2638 17.7718 16.2638C19.5431 16.2638 21.0864 17.2388 21.8949 18.6812H21.8979L24.0996 22.8253L24.1022 22.8304C24.1667 22.9518 24.2944 23.0345 24.4415 23.0345C24.6414 23.0345 24.8054 22.8819 24.8237 22.687L27.8378 12.9156H27.8384C28.4332 10.9873 30.2288 9.58594 32.3522 9.58594C34.571 9.58594 36.4321 11.1156 36.9393 13.178H36.9273L39.908 22.7406H39.9078C39.9674 22.9319 39.9997 23.1355 39.9997 23.3464C39.9997 24.469 39.0897 25.379 37.9669 25.379C36.9974 25.379 36.1866 24.7001 35.9834 23.7921L35.9824 23.7924L32.9679 14.1176H32.9678C32.886 13.8554 32.6415 13.665 32.3523 13.665C32.0423 13.665 31.7834 13.8839 31.7217 14.1754L28.6943 23.9669L28.6821 23.9679C28.1117 25.7485 26.4431 27.0377 24.473 27.0377C22.746 27.0377 21.2508 26.0469 20.5238 24.6028H20.5235L18.3333 20.6705H18.3331C18.2224 20.4749 18.0124 20.3429 17.7718 20.3429C17.531 20.3429 17.3212 20.4749 17.2105 20.6705H17.208L13.8099 26.743H13.8095C13.0481 28.1036 11.5931 29.0235 9.923 29.0235C8.25306 29.0235 6.79826 28.1036 6.03688 26.743H6.03225L3.95724 24.9566L3.95736 24.9567Z" fill="#006C55"/>
<path d="M32.3522 7.63012C34.4592 7.63012 36.1672 5.92206 36.1672 3.81506C36.1672 1.70806 34.4592 0 32.3522 0C30.2452 0 28.5371 1.70806 28.5371 3.81506C28.5371 5.92206 30.2452 7.63012 32.3522 7.63012Z" fill="#006C55"/>
<path d="M17.8092 14.6926C19.9162 14.6926 21.6243 12.9846 21.6243 10.8776C21.6243 8.77056 19.9162 7.0625 17.8092 7.0625C15.7022 7.0625 13.9941 8.77056 13.9941 10.8776C13.9941 12.9846 15.7022 14.6926 17.8092 14.6926Z" fill="#006C55"/>
<path d="M60.9405 14.8574C60.5965 14.8574 60.2727 15.0193 60.1107 15.2824L56.893 21.6978L55.618 19.1681L57.0144 16.3752C57.0144 16.3752 57.156 16.0717 57.156 15.8491C57.156 15.3229 56.6906 14.8574 56.1441 14.8574C55.7799 14.8574 55.4763 15.0193 55.2941 15.2824L54.4846 16.9015L53.6751 15.2824C53.493 15.0193 53.1894 14.8574 52.8656 14.8574C52.299 14.8574 51.8335 15.3229 51.8335 15.8491C51.8335 16.1526 51.9549 16.3752 53.3716 19.1681L52.0966 21.718L48.8585 15.2824C48.6764 15.0193 48.3728 14.8574 48.0692 14.8574C47.5026 14.8574 47.0371 15.3229 47.0371 15.8491C47.0371 16.2943 47.199 16.4967 51.1454 24.2882C51.3478 24.6727 51.6715 24.9762 52.0966 24.9762C52.4811 24.9762 52.8453 24.7536 53.0073 24.4096L54.5048 21.4144C54.9096 22.2442 55.3953 23.1751 55.9417 24.2882C56.1441 24.6727 56.4679 24.9762 56.8929 24.9762C57.2977 24.9762 57.6417 24.7536 57.8036 24.4096L61.8309 16.3752C61.8309 16.3752 61.9524 16.0717 61.9524 15.8491C61.9524 15.3229 61.5071 14.8574 60.9405 14.8574H60.9405ZM66.5059 14.8574C62.6607 14.8574 59.9691 19.4919 62.6202 23.0369C64.6036 25.688 68.0237 25.4047 69.9665 23.4619C70.3915 23.0774 70.3915 22.45 69.9665 22.0419C69.6022 21.6776 68.9749 21.6776 68.5904 22.0419C68.0237 22.6322 67.2952 22.9155 66.5059 22.9357C65.1297 22.9762 63.9964 22.0014 63.6523 20.767H70.5737C71.1201 20.767 71.4034 20.4229 71.4236 19.9574C71.5248 17.1849 69.2582 14.8575 66.5059 14.8575V14.8574ZM66.5059 16.8205C67.8011 16.8205 68.8939 17.6705 69.2987 18.8038H63.6928C64.0976 17.6705 65.1904 16.8205 66.5059 16.8205ZM77.0902 14.8574C75.9569 14.8574 74.9046 15.2419 74.0546 15.8693V15.8491C74.0546 15.3229 73.6094 14.8574 73.0629 14.8574C72.4963 14.8574 72.0308 15.3229 72.0308 15.8491V23.9442C72.0308 24.5108 72.4963 24.9763 73.0629 24.9763C73.6094 24.9763 74.0546 24.5108 74.0546 23.9442V19.9168C74.0546 18.2573 75.4307 16.8812 77.0902 16.8812C78.7497 16.8812 80.1259 18.2573 80.1259 19.9168V23.9442C80.1259 24.5108 80.5914 24.9763 81.158 24.9763C81.7044 24.9763 82.1496 24.5108 82.1496 23.9442V19.9168C82.1496 17.1241 79.883 14.8574 77.0902 14.8574V14.8574ZM87.796 14.8574C85.0234 14.8574 82.7568 17.1241 82.7568 19.8966C82.7568 22.6894 85.0234 24.9763 87.796 24.9763C88.9292 24.9763 89.9816 24.5918 90.8316 23.9644C90.8316 24.5108 91.2971 24.9763 91.8637 24.9763C92.4102 24.9763 92.8756 24.5108 92.8756 23.9442V19.8966C92.8756 17.1241 90.5888 14.8574 87.796 14.8574ZM87.796 22.9323C86.1364 22.9323 84.7805 21.5763 84.7805 19.8966C84.7805 18.2371 86.1364 16.8812 87.796 16.8812C89.4757 16.8812 90.8316 18.2371 90.8316 19.8966C90.8316 21.5763 89.4757 22.9323 87.796 22.9323ZM94.8994 14.4324C95.5268 14.4324 96.0125 13.9265 96.0125 13.3194C96.0125 12.7122 95.5268 12.2266 94.8994 12.2266C94.272 12.2266 93.7863 12.7122 93.7863 13.3194C93.7863 13.9265 94.272 14.4324 94.8994 14.4324ZM94.8994 24.9763C95.466 24.9763 95.9315 24.5108 95.9315 23.9442V15.8491C95.9315 15.2824 95.466 14.817 94.8994 14.817C94.3125 14.817 93.8875 15.2824 93.8875 15.8491V23.9442C93.8875 24.5108 94.3125 24.9763 94.8994 24.9763ZM94.1101 29.0239C96.7613 29.0239 98.9065 26.8584 98.9065 24.2073V15.8491C98.9065 15.3026 98.4815 14.8574 97.9148 14.8574C97.3887 14.8574 96.9434 15.3027 96.9434 15.8491V24.2073C96.9434 25.7858 95.6684 27.0608 94.1101 27.0608C93.5637 27.0608 93.1185 27.5061 93.1185 28.0322C93.1185 28.5989 93.5638 29.0239 94.1101 29.0239ZM104.694 14.8574C101.922 14.8574 99.6553 17.1241 99.6553 19.8966C99.6553 22.6894 101.922 24.9763 104.694 24.9763C105.828 24.9763 106.88 24.5918 107.73 23.9644C107.73 24.5108 108.196 24.9763 108.762 24.9763C109.309 24.9763 109.774 24.5108 109.774 23.9442V19.8966C109.774 17.1241 107.487 14.8574 104.694 14.8574ZM104.694 22.9323C103.035 22.9323 101.679 21.5763 101.679 19.8966C101.679 18.2371 103.035 16.8812 104.694 16.8812C106.374 16.8812 107.73 18.2371 107.73 19.8966C107.73 21.5763 106.374 22.9323 104.694 22.9323Z" fill="#006C55"/>
</svg>
