<svg width="26" height="16" viewBox="0 0 26 16" fill="none" xmlns="http://www.w3.org/2000/svg">
<circle cx="8" cy="8" r="8" fill="#DFAA54"/>
<path d="M23.5655 2.18461C23.5945 2.21286 23.7185 2.31953 23.8205 2.4189C24.462 3.00146 25.512 4.52119 25.8325 5.31661C25.884 5.43741 25.993 5.74282 26 5.90599C26 6.06235 25.964 6.2114 25.891 6.35363C25.789 6.53093 25.6285 6.67316 25.439 6.7511C25.3075 6.80127 24.914 6.8792 24.907 6.8792C24.4765 6.95714 23.777 7 23.004 7C22.2675 7 21.5965 6.95714 21.1595 6.89333C21.1525 6.88602 20.6635 6.80809 20.496 6.72284C20.19 6.56649 20 6.26108 20 5.93424V5.90599C20.0075 5.69313 20.1975 5.24549 20.2045 5.24549C20.5255 4.49294 21.524 3.00828 22.1875 2.41159C22.1875 2.41159 22.358 2.24355 22.4645 2.17048C22.6175 2.0565 22.807 2 22.9965 2C23.208 2 23.405 2.06381 23.5655 2.18461Z" fill="#C2C3C4"/>
<path d="M22.4345 13.8154C22.4055 13.7871 22.2815 13.6805 22.1795 13.5811C21.538 12.9985 20.488 11.4788 20.1675 10.6834C20.116 10.5626 20.007 10.2572 20 10.094C20 9.93765 20.036 9.7886 20.109 9.64637C20.211 9.46907 20.3715 9.32684 20.561 9.2489C20.6925 9.19873 21.086 9.1208 21.093 9.1208C21.5235 9.04286 22.223 9 22.996 9C23.7325 9 24.4035 9.04286 24.8405 9.10667C24.8475 9.11398 25.3365 9.19191 25.504 9.27716C25.81 9.43351 26 9.73892 26 10.0658V10.094C25.9925 10.3069 25.8025 10.7545 25.7955 10.7545C25.4745 11.5071 24.476 12.9917 23.8125 13.5884C23.8125 13.5884 23.642 13.7565 23.5355 13.8295C23.3825 13.9435 23.193 14 23.0035 14C22.792 14 22.595 13.9362 22.4345 13.8154Z" fill="#555555" fill-opacity="0.333333"/>
</svg>
